Aujournuit-Regular Wide.ufo
<glyph name="one" format="2">
  <advance width="405"/>
  <unicode hex="0031"/>
  <outline>
    <contour>
      <point x="210" y="544" type="curve" smooth="yes"/>
      <point x="209" y="329" type="line"/>
      <point x="267" y="329" type="line"/>
      <point x="267" y="535" type="line" smooth="yes"/>
      <point x="267" y="580"/>
      <point x="269" y="690"/>
      <point x="269" y="701" type="curve" smooth="yes"/>
      <point x="269" y="708"/>
      <point x="266" y="710"/>
      <point x="259" y="710" type="curve" smooth="yes"/>
      <point x="253" y="710"/>
      <point x="250" y="708"/>
      <point x="248" y="699" type="curve" smooth="yes"/>
      <point x="221" y="612"/>
      <point x="131" y="532"/>
      <point x="52" y="517" type="curve" smooth="yes"/>
      <point x="38" y="515"/>
      <point x="35" y="500"/>
      <point x="51" y="500" type="curve" smooth="yes"/>
      <point x="87" y="500"/>
      <point x="181" y="567"/>
      <point x="200" y="567" type="curve" smooth="yes"/>
      <point x="212" y="567"/>
      <point x="210" y="560"/>
    </contour>
    <component base="_stem.short" xOffset="133"/>
    <contour>
      <point x="209" y="80" type="line"/>
      <point x="209" y="0" type="line" name="_corner00"/>
      <point x="267" y="0" type="line" name="_corner01"/>
      <point x="267" y="80" type="line"/>
    </contour>
  </outline>
</glyph>
<glyph name="A" format="2">
  <advance width="958"/>
  <unicode hex="0041"/>
  <guideline x="317" y="307" angle="64.3009"/>
  <guideline x="283" y="307" angle="60.9204"/>
  <anchor x="484" y="0" name="bottom"/>
  <anchor x="887" y="10" name="ogonek"/>
  <anchor x="492" y="700" name="top"/>
  <outline>
    <contour>
      <point x="774" y="0" type="curve" name="_corner05"/>
      <point x="850" y="0" type="line" name="_corner00"/>
      <point x="734" y="232"/>
      <point x="617" y="466"/>
      <point x="500" y="700" type="curve" name="_corner01"/>
      <point x="424" y="700" type="line" name="_corner02"/>
      <point x="455" y="634" type="line" smooth="yes"/>
      <point x="457" y="630"/>
      <point x="458" y="623"/>
      <point x="455" y="618" type="curve" smooth="yes"/>
      <point x="341" y="411"/>
      <point x="226" y="205"/>
      <point x="108" y="0" type="curve" name="_corner03"/>
      <point x="173" y="0" type="line" name="_corner04"/>
      <point x="220" y="97"/>
      <point x="264" y="194"/>
      <point x="312" y="289" type="curve" smooth="yes"/>
      <point x="338" y="341"/>
      <point x="347" y="341"/>
      <point x="439" y="341" type="curve" smooth="yes"/>
      <point x="500" y="341" type="line" smooth="yes"/>
      <point x="597" y="341"/>
      <point x="607" y="341"/>
      <point x="633" y="289" type="curve" smooth="yes"/>
      <point x="682" y="192"/>
      <point x="728" y="97"/>
    </contour>
    <contour>
      <point x="370" y="410" type="curve" smooth="yes"/>
      <point x="396" y="465"/>
      <point x="424" y="519"/>
      <point x="452" y="571" type="curve" smooth="yes"/>
      <point x="462" y="591"/>
      <point x="466" y="599"/>
      <point x="472" y="599" type="curve" smooth="yes"/>
      <point x="478" y="599"/>
      <point x="481" y="595"/>
      <point x="491" y="575" type="curve" smooth="yes"/>
      <point x="518" y="522"/>
      <point x="546" y="468"/>
      <point x="574" y="410" type="curve" smooth="yes"/>
      <point x="599" y="359"/>
      <point x="587" y="357"/>
      <point x="500" y="357" type="curve" smooth="yes"/>
      <point x="439" y="357" type="line" smooth="yes"/>
      <point x="355" y="357"/>
      <point x="344" y="359"/>
    </contour>
  </outline>
</glyph>
<glyph name="B" format="2">
  <advance width="771"/>
  <unicode hex="0042"/>
  <anchor x="346" y="0" name="bottom"/>
  <anchor x="346" y="350" name="center"/>
  <anchor x="346" y="700" name="top"/>
  <outline>
    <contour>
      <point x="146" y="700" type="curve"/>
      <point x="146" y="642" type="line"/>
      <point x="205" y="642" type="line"/>
      <point x="205" y="677"/>
      <point x="210" y="687"/>
      <point x="324" y="687" type="curve" smooth="yes"/>
      <point x="505" y="687"/>
      <point x="606" y="608"/>
      <point x="606" y="464" type="curve" smooth="yes"/>
      <point x="606" y="323"/>
      <point x="512" y="245"/>
      <point x="344" y="245" type="curve" smooth="yes"/>
      <point x="221" y="245"/>
      <point x="203" y="245"/>
      <point x="203" y="286" type="curve"/>
      <point x="179" y="286" type="line"/>
      <point x="179" y="176" type="line"/>
      <point x="203" y="176" type="line"/>
      <point x="203" y="223"/>
      <point x="212" y="224"/>
      <point x="344" y="225" type="curve" smooth="yes"/>
      <point x="551" y="227"/>
      <point x="666" y="188"/>
      <point x="666" y="112" type="curve" smooth="yes"/>
      <point x="666" y="43"/>
      <point x="563" y="14"/>
      <point x="324" y="14" type="curve" smooth="yes"/>
      <point x="214" y="14"/>
      <point x="204" y="28"/>
      <point x="204" y="75" type="curve"/>
      <point x="165" y="75" type="line"/>
      <point x="165" y="0" type="line"/>
      <point x="179" y="0"/>
      <point x="173" y="0"/>
      <point x="372" y="0" type="curve" smooth="yes"/>
      <point x="640" y="0"/>
      <point x="744" y="33"/>
      <point x="744" y="114" type="curve" smooth="yes"/>
      <point x="744" y="188"/>
      <point x="631" y="236"/>
      <point x="453" y="236" type="curve" smooth="yes"/>
      <point x="450" y="236"/>
      <point x="450" y="237"/>
      <point x="450" y="240" type="curve" smooth="yes"/>
      <point x="450" y="243"/>
      <point x="450" y="244"/>
      <point x="454" y="245" type="curve" smooth="yes"/>
      <point x="579" y="270"/>
      <point x="678" y="355"/>
      <point x="678" y="464" type="curve" smooth="yes"/>
      <point x="678" y="608"/>
      <point x="548" y="700"/>
      <point x="372" y="700" type="curve" smooth="yes"/>
      <point x="311" y="700"/>
      <point x="164" y="700"/>
      <point x="152" y="700" type="curve" smooth="yes"/>
      <point x="150" y="700"/>
      <point x="148" y="700"/>
    </contour>
    <contour>
      <point x="207" y="0" type="line"/>
      <point x="207" y="700" type="line" name="_corner00"/>
      <point x="138" y="700" type="line" name="_corner01"/>
      <point x="138" y="0" type="line" name="_corner03"/>
    </contour>
  </outline>
</glyph>
<glyph name="D" format="2">
  <advance width="779"/>
  <unicode hex="0044"/>
  <anchor x="365" y="0" name="bottom"/>
  <anchor x="365" y="350" name="center"/>
  <anchor x="365" y="700" name="top"/>
  <outline>
    <contour>
      <point x="164" y="92" type="line"/>
      <point x="164" y="0" type="line"/>
      <point x="172" y="0"/>
      <point x="203" y="0"/>
      <point x="358" y="0" type="curve" smooth="yes"/>
      <point x="600" y="0"/>
      <point x="752" y="135"/>
      <point x="752" y="347" type="curve" smooth="yes"/>
      <point x="752" y="563"/>
      <point x="600" y="700"/>
      <point x="358" y="700" type="curve" smooth="yes"/>
      <point x="170" y="700"/>
      <point x="183" y="700"/>
      <point x="162" y="700" type="curve"/>
      <point x="162" y="641" type="line"/>
      <point x="206" y="641" type="line"/>
      <point x="206" y="683"/>
      <point x="215" y="687"/>
      <point x="311" y="687" type="curve" smooth="yes"/>
      <point x="548" y="687"/>
      <point x="680" y="566"/>
      <point x="680" y="348" type="curve" smooth="yes"/>
      <point x="680" y="115"/>
      <point x="568" y="15"/>
      <point x="311" y="15" type="curve" smooth="yes"/>
      <point x="213" y="15"/>
      <point x="206" y="17"/>
      <point x="205" y="92" type="curve"/>
    </contour>
    <contour>
      <point x="208" y="0" type="line"/>
      <point x="208" y="700" type="line" name="_corner02"/>
      <point x="138" y="700" type="line" name="_corner00"/>
      <point x="138" y="0" type="line" name="_corner03"/>
    </contour>
  </outline>
</glyph>
<glyph name="E" format="2">
  <advance width="706"/>
  <unicode hex="0045"/>
  <anchor x="352" y="0" name="bottom"/>
  <anchor x="633" y="10" name="ogonek"/>
  <anchor x="370" y="700" name="top"/>
  <anchor x="20" y="700" name="topleft"/>
  <outline>
    <contour>
      <point x="208" y="0" type="line"/>
      <point x="208" y="700" type="line" name="_corner03"/>
      <point x="138" y="700" type="line" name="_corner00"/>
      <point x="138" y="0" type="line" name="_corner02"/>
    </contour>
    <contour>
      <point x="188" y="280" type="line"/>
      <point x="203" y="280" type="line"/>
      <point x="203" y="349"/>
      <point x="206" y="349"/>
      <point x="292" y="349" type="curve" smooth="yes"/>
      <point x="446" y="349"/>
      <point x="472" y="335"/>
      <point x="472" y="250" type="curve" smooth="yes"/>
      <point x="472" y="242"/>
      <point x="476" y="238"/>
      <point x="483" y="238" type="curve" smooth="yes"/>
      <point x="489" y="238"/>
      <point x="494" y="240"/>
      <point x="494" y="249" type="curve" smooth="yes"/>
      <point x="494" y="271"/>
      <point x="483" y="297"/>
      <point x="483" y="357" type="curve" smooth="yes"/>
      <point x="483" y="421"/>
      <point x="494" y="441"/>
      <point x="494" y="461" type="curve" smooth="yes"/>
      <point x="494" y="470"/>
      <point x="489" y="472"/>
      <point x="483" y="472" type="curve" smooth="yes"/>
      <point x="476" y="472"/>
      <point x="472" y="468"/>
      <point x="472" y="460" type="curve" smooth="yes"/>
      <point x="472" y="378"/>
      <point x="447" y="365"/>
      <point x="292" y="365" type="curve" smooth="yes"/>
      <point x="206" y="365"/>
      <point x="203" y="365"/>
      <point x="203" y="438" type="curve"/>
      <point x="188" y="438" type="line"/>
    </contour>
    <contour>
      <point x="660" y="-6" type="curve" smooth="yes"/>
      <point x="667" y="-6"/>
      <point x="672" y="-3"/>
      <point x="671" y="5" type="curve" smooth="yes"/>
      <point x="669" y="19"/>
      <point x="664" y="40"/>
      <point x="664" y="80" type="curve" smooth="yes"/>
      <point x="664" y="144"/>
      <point x="669" y="175"/>
      <point x="671" y="208" type="curve" smooth="yes"/>
      <point x="672" y="217"/>
      <point x="667" y="220"/>
      <point x="660" y="220" type="curve" smooth="yes"/>
      <point x="653" y="220"/>
      <point x="649" y="216"/>
      <point x="649" y="208" type="curve" smooth="yes"/>
      <point x="649" y="33"/>
      <point x="633" y="13"/>
      <point x="307" y="13" type="curve" smooth="yes"/>
      <point x="209" y="13"/>
      <point x="207" y="14"/>
      <point x="205" y="87" type="curve"/>
      <point x="190" y="87" type="line"/>
      <point x="191" y="0" type="line"/>
      <point x="640" y="0"/>
      <point x="648" y="-6"/>
    </contour>
    <component base="_Etop" xOffset="74"/>
  </outline>
</glyph>
<glyph name="F" format="2">
  <advance width="675"/>
  <unicode hex="0046"/>
  <anchor x="319" y="0" name="bottom"/>
  <anchor x="319" y="700" name="top"/>
  <outline>
    <contour>
      <point x="208" y="0" type="line" name="_corner03"/>
      <point x="208" y="700" type="line" name="_corner00"/>
      <point x="138" y="700" type="line" name="_corner01"/>
      <point x="138" y="0" type="line" name="_corner04"/>
    </contour>
    <component base="_Etop" xOffset="74"/>
    <contour>
      <point x="188" y="295" type="line"/>
      <point x="203" y="295" type="line"/>
      <point x="203" y="345"/>
      <point x="207" y="344"/>
      <point x="271" y="343" type="curve" smooth="yes"/>
      <point x="427" y="340"/>
      <point x="445" y="325"/>
      <point x="445" y="245" type="curve" smooth="yes"/>
      <point x="445" y="237"/>
      <point x="449" y="233"/>
      <point x="456" y="233" type="curve" smooth="yes"/>
      <point x="462" y="233"/>
      <point x="467" y="235"/>
      <point x="467" y="244" type="curve" smooth="yes"/>
      <point x="467" y="266"/>
      <point x="456" y="292"/>
      <point x="456" y="352" type="curve" smooth="yes"/>
      <point x="456" y="416"/>
      <point x="467" y="436"/>
      <point x="467" y="462" type="curve" smooth="yes"/>
      <point x="467" y="471"/>
      <point x="462" y="473"/>
      <point x="456" y="473" type="curve" smooth="yes"/>
      <point x="449" y="473"/>
      <point x="445" y="469"/>
      <point x="445" y="461" type="curve" smooth="yes"/>
      <point x="445" y="372"/>
      <point x="427" y="364"/>
      <point x="271" y="361" type="curve" smooth="yes"/>
      <point x="207" y="360"/>
      <point x="203" y="359"/>
      <point x="203" y="413" type="curve"/>
      <point x="188" y="413" type="line"/>
    </contour>
  </outline>
</glyph>
<glyph name="G" format="2">
  <advance width="757"/>
  <unicode hex="0047"/>
  <anchor x="377" y="0" name="bottom"/>
  <anchor x="377" y="700" name="top"/>
  <outline>
    <contour>
      <point x="27" y="328" type="curve" smooth="yes"/>
      <point x="27" y="126"/>
      <point x="171" y="-10"/>
      <point x="390" y="-10" type="curve" smooth="yes"/>
      <point x="545" y="-10"/>
      <point x="568" y="33"/>
      <point x="612" y="33" type="curve" smooth="yes"/>
      <point x="635" y="33"/>
      <point x="644" y="23"/>
      <point x="646" y="5" type="curve" smooth="yes"/>
      <point x="648" y="-5"/>
      <point x="653" y="-9"/>
      <point x="660" y="-9" type="curve" smooth="yes"/>
      <point x="667" y="-9"/>
      <point x="672" y="-6"/>
      <point x="669" y="4" type="curve" smooth="yes"/>
      <point x="657" y="39"/>
      <point x="658" y="94"/>
      <point x="658" y="144" type="curve" smooth="yes"/>
      <point x="658" y="188"/>
      <point x="659" y="247"/>
      <point x="661" y="369" type="curve" name="_corner00"/>
      <point x="601" y="369" type="line" name="_corner01"/>
      <point x="603" y="235"/>
      <point x="602" y="186"/>
      <point x="602" y="172" type="curve" smooth="yes"/>
      <point x="602" y="47"/>
      <point x="552" y="7"/>
      <point x="402" y="7" type="curve" smooth="yes"/>
      <point x="218" y="7"/>
      <point x="94" y="156"/>
      <point x="94" y="383" type="curve" smooth="yes"/>
      <point x="94" y="572"/>
      <point x="221" y="696"/>
      <point x="412" y="696" type="curve" smooth="yes"/>
      <point x="560" y="696"/>
      <point x="622" y="646"/>
      <point x="622" y="513" type="curve" smooth="yes"/>
      <point x="622" y="490"/>
      <point x="620" y="480"/>
      <point x="633" y="480" type="curve" smooth="yes"/>
      <point x="640" y="480"/>
      <point x="644" y="483"/>
      <point x="644" y="491" type="curve" smooth="yes"/>
      <point x="644" y="501"/>
      <point x="637" y="550"/>
      <point x="637" y="610" type="curve" smooth="yes"/>
      <point x="637" y="661"/>
      <point x="642" y="685"/>
      <point x="643" y="694" type="curve" smooth="yes"/>
      <point x="645" y="711"/>
      <point x="638" y="710"/>
      <point x="633" y="710" type="curve" smooth="yes"/>
      <point x="617" y="710"/>
      <point x="624" y="688"/>
      <point x="606" y="688" type="curve" smooth="yes"/>
      <point x="578" y="688"/>
      <point x="515" y="709"/>
      <point x="410" y="709" type="curve" smooth="yes"/>
      <point x="195" y="709"/>
      <point x="27" y="540"/>
    </contour>
  </outline>
</glyph>
<glyph name="H" format="2">
  <advance width="916"/>
  <unicode hex="0048"/>
  <anchor x="458" y="0" name="bottom"/>
  <anchor x="458" y="350" name="center"/>
  <anchor x="458" y="700" name="top"/>
  <anchor x="70" y="700" name="topleft"/>
  <outline>
    <contour>
      <point x="208" y="0" type="line" name="_corner08"/>
      <point x="208" y="700" type="line" name="_corner10"/>
      <point x="138" y="700" type="line" name="_corner00"/>
      <point x="138" y="0" type="line" name="_corner09"/>
    </contour>
    <contour>
      <point x="708" y="700" type="line" name="_corner07"/>
      <point x="708" y="0" type="line" name="_corner11"/>
      <point x="778" y="0" type="line" name="_corner02"/>
      <point x="778" y="700" type="line" name="_corner03"/>
    </contour>
    <contour>
      <point x="204" y="444" type="curve"/>
      <point x="188" y="444" type="line"/>
      <point x="188" y="286" type="line"/>
      <point x="204" y="286" type="line"/>
      <point x="204" y="347"/>
      <point x="213" y="357"/>
      <point x="263" y="357" type="curve" smooth="yes"/>
      <point x="653" y="357" type="line" smooth="yes"/>
      <point x="703" y="357"/>
      <point x="712" y="347"/>
      <point x="712" y="286" type="curve"/>
      <point x="728" y="286" type="line"/>
      <point x="728" y="444" type="line"/>
      <point x="712" y="444" type="line"/>
      <point x="712" y="383"/>
      <point x="703" y="373"/>
      <point x="653" y="373" type="curve" smooth="yes"/>
      <point x="263" y="373" type="line" smooth="yes"/>
      <point x="213" y="373"/>
      <point x="204" y="383"/>
    </contour>
  </outline>
</glyph>
<glyph name="J" format="2">
  <advance width="512"/>
  <unicode hex="004A"/>
  <anchor x="258" y="0" name="bottom"/>
  <anchor x="338" y="700" name="top"/>
  <outline>
    <contour>
      <point x="384" y="149" type="curve" smooth="yes"/>
      <point x="384" y="214"/>
      <point x="384" y="515"/>
      <point x="384" y="700" type="curve" name="_corner01"/>
      <point x="318" y="700" type="line" name="_corner00"/>
      <point x="318" y="549"/>
      <point x="326" y="205"/>
      <point x="326" y="132" type="curve" smooth="yes"/>
      <point x="326" y="45"/>
      <point x="284" y="6"/>
      <point x="193" y="6" type="curve" smooth="yes"/>
      <point x="114" y="6"/>
      <point x="84" y="34"/>
      <point x="84" y="108" type="curve" smooth="yes"/>
      <point x="84" y="132"/>
      <point x="74" y="145"/>
      <point x="53" y="145" type="curve" smooth="yes"/>
      <point x="31" y="145"/>
      <point x="20" y="129"/>
      <point x="20" y="102" type="curve" smooth="yes"/>
      <point x="20" y="32"/>
      <point x="79" y="-9"/>
      <point x="185" y="-9" type="curve" smooth="yes"/>
      <point x="329" y="-9"/>
      <point x="384" y="35"/>
    </contour>
  </outline>
</glyph>
<glyph name="K" format="2">
  <advance width="811"/>
  <unicode hex="004B"/>
  <anchor x="406" y="0" name="bottom"/>
  <anchor x="406" y="700" name="top"/>
  <outline>
    <contour>
      <point x="621" y="0" type="curve" name="_corner00"/>
      <point x="703" y="0" type="line" name="_corner01"/>
      <point x="593" y="138"/>
      <point x="486" y="277"/>
      <point x="382" y="417" type="curve" smooth="yes"/>
      <point x="371" y="432"/>
      <point x="373" y="444"/>
      <point x="391" y="459" type="curve" smooth="yes"/>
      <point x="484" y="540"/>
      <point x="578" y="621"/>
      <point x="673" y="700" type="curve" name="_corner03"/>
      <point x="591" y="700" type="line" name="_corner02"/>
      <point x="475" y="585"/>
      <point x="359" y="471"/>
      <point x="239" y="358" type="curve" smooth="yes"/>
      <point x="226" y="345"/>
      <point x="219" y="342"/>
      <point x="214" y="342" type="curve" smooth="yes"/>
      <point x="207" y="342"/>
      <point x="204" y="347"/>
      <point x="204" y="368" type="curve"/>
      <point x="170" y="368" type="line"/>
      <point x="170" y="207" type="line"/>
      <point x="204" y="207" type="line"/>
      <point x="204" y="259"/>
      <point x="209" y="305"/>
      <point x="234" y="326" type="curve" smooth="yes"/>
      <point x="306" y="388" type="line" smooth="yes"/>
      <point x="313" y="394"/>
      <point x="317" y="396"/>
      <point x="320" y="396" type="curve" smooth="yes"/>
      <point x="325" y="396"/>
      <point x="329" y="391"/>
      <point x="336" y="382" type="curve" smooth="yes"/>
      <point x="434" y="256"/>
      <point x="529" y="128"/>
    </contour>
    <contour>
      <point x="138" y="0" type="line" name="_corner09"/>
      <point x="208" y="0" type="line" name="_corner07"/>
      <point x="208" y="700" type="line" name="_corner08"/>
      <point x="138" y="700" type="line" name="_corner05"/>
    </contour>
  </outline>
</glyph>
<glyph name="L" format="2">
  <advance width="686"/>
  <unicode hex="004C"/>
  <anchor x="342" y="0" name="bottom"/>
  <anchor x="375" y="388" name="center"/>
  <anchor x="212" y="700" name="top"/>
  <anchor x="663" y="700" name="topright"/>
  <outline>
    <contour>
      <point x="208" y="0" type="line"/>
      <point x="208" y="700" type="line" name="_corner03"/>
      <point x="138" y="700" type="line" name="_corner01"/>
      <point x="138" y="0" type="line" name="_corner04"/>
    </contour>
    <contour>
      <point x="650" y="-6" type="curve" smooth="yes"/>
      <point x="657" y="-6"/>
      <point x="662" y="-3"/>
      <point x="661" y="5" type="curve" smooth="yes"/>
      <point x="659" y="19"/>
      <point x="654" y="40"/>
      <point x="654" y="80" type="curve" smooth="yes"/>
      <point x="654" y="144"/>
      <point x="659" y="175"/>
      <point x="661" y="208" type="curve" smooth="yes"/>
      <point x="662" y="217"/>
      <point x="657" y="220"/>
      <point x="650" y="220" type="curve" smooth="yes"/>
      <point x="643" y="220"/>
      <point x="639" y="216"/>
      <point x="639" y="208" type="curve" smooth="yes"/>
      <point x="639" y="33"/>
      <point x="623" y="13"/>
      <point x="272" y="13" type="curve" smooth="yes"/>
      <point x="208" y="13"/>
      <point x="206" y="23"/>
      <point x="206" y="45" type="curve"/>
      <point x="191" y="45" type="line"/>
      <point x="191" y="0" type="line"/>
      <point x="630" y="0"/>
      <point x="638" y="-6"/>
    </contour>
  </outline>
</glyph>
<glyph name="M" format="2">
  <advance width="1076"/>
  <unicode hex="004D"/>
  <anchor x="535" y="0" name="bottom"/>
  <anchor x="535" y="700" name="top"/>
  <outline>
    <contour>
      <point x="185" y="700" type="curve" name="_corner02"/>
      <point x="105" y="700" type="line" name="_corner01"/>
      <point x="145" y="624" type="line"/>
      <point x="146" y="623"/>
      <point x="149" y="617"/>
      <point x="149" y="616" type="curve" smooth="yes"/>
      <point x="123" y="0" type="line" name="_corner05"/>
      <point x="188" y="0" type="line" name="_corner06"/>
      <point x="180" y="184"/>
      <point x="175" y="367"/>
      <point x="172" y="551" type="curve" smooth="yes"/>
      <point x="172" y="569"/>
      <point x="172" y="581"/>
      <point x="176" y="581" type="curve" smooth="yes"/>
      <point x="179" y="581"/>
      <point x="192" y="561"/>
      <point x="201" y="544" type="curve" smooth="yes"/>
      <point x="310" y="364"/>
      <point x="418" y="182"/>
      <point x="525" y="-2" type="curve" smooth="yes"/>
      <point x="532" y="-13"/>
      <point x="534" y="-12"/>
      <point x="539" y="-12" type="curve" smooth="yes"/>
      <point x="540" y="-12" type="line" smooth="yes"/>
      <point x="546" y="-12"/>
      <point x="547" y="-13"/>
      <point x="554" y="-1" type="curve" smooth="yes"/>
      <point x="658" y="191"/>
      <point x="758" y="384"/>
      <point x="862" y="572" type="curve" smooth="yes"/>
      <point x="870" y="587"/>
      <point x="875" y="593"/>
      <point x="877" y="593" type="curve" smooth="yes"/>
      <point x="879" y="593"/>
      <point x="881" y="589"/>
      <point x="881" y="564" type="curve" smooth="yes"/>
      <point x="879" y="380"/>
      <point x="881" y="187"/>
      <point x="879" y="0" type="curve" name="_corner07"/>
      <point x="948" y="0" type="line" name="_corner08"/>
      <point x="944" y="700" type="line" name="_corner09"/>
      <point x="873" y="700" type="line" name="_corner03"/>
      <point x="779" y="499"/>
      <point x="683" y="300"/>
      <point x="584" y="101" type="curve" smooth="yes"/>
      <point x="577" y="85"/>
      <point x="569" y="72"/>
      <point x="564" y="72" type="curve" smooth="yes"/>
      <point x="562" y="72"/>
      <point x="558" y="74"/>
      <point x="550" y="88" type="curve" smooth="yes"/>
      <point x="430" y="286"/>
      <point x="306" y="493"/>
    </contour>
  </outline>
</glyph>
<glyph name="N" format="2">
  <advance width="986"/>
  <unicode hex="004E"/>
  <anchor x="493" y="0" name="bottom"/>
  <anchor x="493" y="700" name="top"/>
  <outline>
    <contour>
      <point x="173" y="0" type="curve" name="_corner07"/>
      <point x="250" y="0" type="line" name="_corner00"/>
      <point x="222" y="226"/>
      <point x="224" y="444"/>
      <point x="220" y="542" type="curve" smooth="yes"/>
      <point x="219" y="567"/>
      <point x="220" y="583"/>
      <point x="228" y="583" type="curve" smooth="yes"/>
      <point x="231" y="583"/>
      <point x="237" y="576"/>
      <point x="251" y="561" type="curve" smooth="yes"/>
      <point x="434" y="374"/>
      <point x="617" y="187"/>
      <point x="800" y="0" type="curve" name="_corner01"/>
      <point x="825" y="0" type="line" name="_corner02"/>
      <point x="815" y="140"/>
      <point x="821" y="560"/>
      <point x="848" y="700" type="curve" name="_corner03"/>
      <point x="771" y="700" type="line" name="_corner04"/>
      <point x="802" y="520"/>
      <point x="793" y="263"/>
      <point x="796" y="148" type="curve" smooth="yes"/>
      <point x="797" y="118"/>
      <point x="794" y="108"/>
      <point x="788" y="108" type="curve" smooth="yes"/>
      <point x="781" y="108"/>
      <point x="775" y="115"/>
      <point x="762" y="129" type="curve" smooth="yes"/>
      <point x="576" y="318"/>
      <point x="390" y="509"/>
      <point x="202" y="700" type="curve" name="_corner05"/>
      <point x="123" y="700" type="line" name="_corner06"/>
      <point x="189" y="633" type="line" smooth="yes"/>
      <point x="192" y="630"/>
      <point x="195" y="626"/>
      <point x="195" y="619" type="curve" smooth="yes"/>
      <point x="199" y="546"/>
      <point x="191" y="37"/>
    </contour>
  </outline>
</glyph>
<glyph name="P" format="2">
  <advance width="746"/>
  <unicode hex="0050"/>
  <anchor x="200" y="0" name="bottom"/>
  <anchor x="200" y="700" name="top"/>
  <outline>
    <contour>
      <point x="193" y="161" type="line"/>
      <point x="212" y="161" type="line"/>
      <point x="212" y="193"/>
      <point x="226" y="197"/>
      <point x="307" y="197" type="curve" smooth="yes"/>
      <point x="572" y="197"/>
      <point x="719" y="287"/>
      <point x="719" y="445" type="curve" smooth="yes"/>
      <point x="719" y="597"/>
      <point x="562" y="700"/>
      <point x="325" y="700" type="curve" smooth="yes"/>
      <point x="270" y="700"/>
      <point x="177" y="700"/>
      <point x="162" y="700" type="curve"/>
      <point x="193" y="641" type="line"/>
      <point x="207" y="641" type="line"/>
      <point x="206" y="681"/>
      <point x="220" y="687"/>
      <point x="295" y="687" type="curve" smooth="yes"/>
      <point x="521" y="687"/>
      <point x="647" y="601"/>
      <point x="647" y="443" type="curve" smooth="yes"/>
      <point x="647" y="285"/>
      <point x="540" y="214"/>
      <point x="309" y="214" type="curve" smooth="yes"/>
      <point x="225" y="214"/>
      <point x="210" y="221"/>
      <point x="210" y="266" type="curve"/>
      <point x="193" y="266" type="line"/>
    </contour>
    <contour>
      <point x="218" y="0" type="line" name="_corner04"/>
      <point x="208" y="700" type="line" name="_corner02"/>
      <point x="138" y="700" type="line" name="_corner00"/>
      <point x="148" y="0" type="line" name="_corner03"/>
    </contour>
  </outline>
</glyph>
<glyph name="R" format="2">
  <advance width="801"/>
  <unicode hex="0052"/>
  <anchor x="421" y="0" name="bottom"/>
  <anchor x="391" y="700" name="top"/>
  <outline>
    <contour>
      <point x="150" y="699" type="curve"/>
      <point x="150" y="641" type="line"/>
      <point x="206" y="641" type="line"/>
      <point x="206" y="677"/>
      <point x="211" y="687"/>
      <point x="295" y="687" type="curve" smooth="yes"/>
      <point x="550" y="687"/>
      <point x="667" y="608"/>
      <point x="667" y="435" type="curve" smooth="yes"/>
      <point x="667" y="286"/>
      <point x="543" y="205"/>
      <point x="314" y="205" type="curve" smooth="yes"/>
      <point x="217" y="205"/>
      <point x="203" y="203"/>
      <point x="203" y="261" type="curve"/>
      <point x="183" y="261" type="line"/>
      <point x="183" y="124" type="line"/>
      <point x="204" y="124" type="line"/>
      <point x="204" y="184"/>
      <point x="211" y="187"/>
      <point x="314" y="187" type="curve" smooth="yes"/>
      <point x="442" y="187"/>
      <point x="524" y="151"/>
      <point x="579" y="69" type="curve" smooth="yes"/>
      <point x="616" y="13"/>
      <point x="650" y="-10"/>
      <point x="700" y="-10" type="curve" smooth="yes"/>
      <point x="749" y="-10"/>
      <point x="779" y="20"/>
      <point x="792" y="70" type="curve" smooth="yes"/>
      <point x="796" y="87"/>
      <point x="793" y="93"/>
      <point x="785" y="93" type="curve" smooth="yes"/>
      <point x="778" y="93"/>
      <point x="774" y="87"/>
      <point x="772" y="75" type="curve" smooth="yes"/>
      <point x="767" y="43"/>
      <point x="751" y="30"/>
      <point x="722" y="30" type="curve" smooth="yes"/>
      <point x="696" y="30"/>
      <point x="676" y="44"/>
      <point x="648" y="85" type="curve" smooth="yes"/>
      <point x="602" y="155"/>
      <point x="554" y="180"/>
      <point x="446" y="190" type="curve" smooth="yes"/>
      <point x="443" y="190"/>
      <point x="442" y="191"/>
      <point x="442" y="195" type="curve" smooth="yes"/>
      <point x="442" y="198"/>
      <point x="443" y="199"/>
      <point x="447" y="200" type="curve" smooth="yes"/>
      <point x="576" y="219"/>
      <point x="739" y="274"/>
      <point x="739" y="438" type="curve" smooth="yes"/>
      <point x="739" y="603"/>
      <point x="570" y="700"/>
      <point x="342" y="700" type="curve" smooth="yes"/>
      <point x="177" y="700"/>
      <point x="168" y="699"/>
      <point x="156" y="699" type="curve" smooth="yes"/>
      <point x="154" y="699"/>
      <point x="152" y="699"/>
    </contour>
    <contour>
      <point x="208" y="0" type="line" name="_corner02"/>
      <point x="208" y="700" type="line" name="_corner03"/>
      <point x="138" y="700" type="line" name="_corner00"/>
      <point x="138" y="0" type="line" name="_corner04"/>
    </contour>
  </outline>
</glyph>
<glyph name="T" format="2">
  <advance width="768"/>
  <unicode hex="0054"/>
  <anchor x="384" y="0" name="bottom"/>
  <anchor x="384" y="350" name="center"/>
  <anchor x="384" y="700" name="top"/>
  <outline>
    <contour>
      <point x="419" y="0" type="line" name="_corner01"/>
      <point x="417" y="698" type="line" name="_corner03"/>
      <point x="351" y="698" type="line"/>
      <point x="349" y="0" type="line" name="_corner02"/>
    </contour>
    <contour>
      <point x="727" y="706" type="curve" smooth="yes"/>
      <point x="715" y="706"/>
      <point x="707" y="698"/>
      <point x="403" y="698" type="curve"/>
      <point x="403" y="661" type="line"/>
      <point x="416" y="661" type="line"/>
      <point x="417" y="684"/>
      <point x="420" y="685"/>
      <point x="469" y="685" type="curve" smooth="yes"/>
      <point x="700" y="685"/>
      <point x="716" y="667"/>
      <point x="716" y="492" type="curve" smooth="yes"/>
      <point x="716" y="484"/>
      <point x="720" y="480"/>
      <point x="727" y="480" type="curve" smooth="yes"/>
      <point x="734" y="480"/>
      <point x="739" y="483"/>
      <point x="738" y="492" type="curve" smooth="yes"/>
      <point x="736" y="525"/>
      <point x="731" y="556"/>
      <point x="731" y="620" type="curve" smooth="yes"/>
      <point x="731" y="660"/>
      <point x="736" y="685"/>
      <point x="738" y="695" type="curve" smooth="yes"/>
      <point x="739" y="703"/>
      <point x="734" y="706"/>
    </contour>
    <contour>
      <point x="41" y="706" type="curve" smooth="yes"/>
      <point x="34" y="706"/>
      <point x="29" y="703"/>
      <point x="30" y="695" type="curve" smooth="yes"/>
      <point x="32" y="681"/>
      <point x="37" y="660"/>
      <point x="37" y="620" type="curve" smooth="yes"/>
      <point x="37" y="556"/>
      <point x="32" y="525"/>
      <point x="30" y="492" type="curve" smooth="yes"/>
      <point x="29" y="483"/>
      <point x="34" y="480"/>
      <point x="41" y="480" type="curve" smooth="yes"/>
      <point x="48" y="480"/>
      <point x="52" y="484"/>
      <point x="52" y="492" type="curve" smooth="yes"/>
      <point x="52" y="667"/>
      <point x="68" y="685"/>
      <point x="299" y="685" type="curve" smooth="yes"/>
      <point x="348" y="685"/>
      <point x="351" y="684"/>
      <point x="352" y="661" type="curve"/>
      <point x="364" y="661" type="line"/>
      <point x="364" y="698" type="line"/>
      <point x="61" y="698"/>
      <point x="53" y="706"/>
    </contour>
  </outline>
</glyph>
<glyph name="U" format="2">
  <advance width="863"/>
  <unicode hex="0055"/>
  <anchor x="433" y="0" name="bottom"/>
  <anchor x="737" y="10" name="ogonek"/>
  <anchor x="433" y="700" name="top"/>
  <anchor x="793" y="700" name="topright"/>
  <outline>
    <contour>
      <point x="128" y="700" type="line" name="_corner00"/>
      <point x="134" y="628"/>
      <point x="134" y="481"/>
      <point x="136" y="250" type="curve" smooth="yes"/>
      <point x="137" y="71"/>
      <point x="245" y="-9"/>
      <point x="440" y="-9" type="curve" smooth="yes"/>
      <point x="627" y="-9"/>
      <point x="709" y="60"/>
      <point x="709" y="263" type="curve" smooth="yes"/>
      <point x="709" y="376"/>
      <point x="718" y="604"/>
      <point x="735" y="700" type="curve" name="_corner02"/>
      <point x="652" y="700" type="line" name="_corner01"/>
      <point x="682" y="546"/>
      <point x="686" y="270"/>
      <point x="686" y="239" type="curve" smooth="yes"/>
      <point x="686" y="71"/>
      <point x="605" y="8"/>
      <point x="444" y="8" type="curve" smooth="yes"/>
      <point x="283" y="8"/>
      <point x="201" y="70"/>
      <point x="198" y="237" type="curve" smooth="yes"/>
      <point x="194" y="520"/>
      <point x="198" y="677"/>
      <point x="201" y="700" type="curve" name="_corner03"/>
    </contour>
  </outline>
</glyph>
<glyph name="W" format="2">
  <advance width="1483"/>
  <unicode hex="0057"/>
  <anchor x="737" y="0" name="bottom"/>
  <anchor x="737" y="700" name="top"/>
  <outline>
    <contour>
      <point x="472" y="-9" type="curve" smooth="yes"/>
      <point x="487" y="-9" type="line" smooth="yes"/>
      <point x="488" y="-9"/>
      <point x="492" y="-9"/>
      <point x="492" y="-7" type="curve"/>
      <point x="569" y="165"/>
      <point x="647" y="336"/>
      <point x="724" y="506" type="curve" smooth="yes"/>
      <point x="735" y="533"/>
      <point x="738" y="536"/>
      <point x="740" y="536" type="curve" smooth="yes"/>
      <point x="743" y="536"/>
      <point x="748" y="530"/>
      <point x="758" y="505" type="curve" smooth="yes"/>
      <point x="835" y="335"/>
      <point x="913" y="165"/>
      <point x="990" y="-7" type="curve"/>
      <point x="990" y="-9"/>
      <point x="994" y="-9"/>
      <point x="995" y="-9" type="curve" smooth="yes"/>
      <point x="1010" y="-9" type="line" smooth="yes"/>
      <point x="1011" y="-9"/>
      <point x="1015" y="-9"/>
      <point x="1015" y="-7" type="curve"/>
      <point x="1135" y="230"/>
      <point x="1255" y="465"/>
      <point x="1375" y="700" type="curve" name="_corner02"/>
      <point x="1314" y="700" type="line" name="_corner03"/>
      <point x="1226" y="502"/>
      <point x="1137" y="305"/>
      <point x="1049" y="109" type="curve" smooth="yes"/>
      <point x="1042" y="92"/>
      <point x="1034" y="72"/>
      <point x="1029" y="72" type="curve" smooth="yes"/>
      <point x="1023" y="72"/>
      <point x="1015" y="91"/>
      <point x="1006" y="113" type="curve" smooth="yes"/>
      <point x="919" y="308"/>
      <point x="832" y="503"/>
      <point x="745" y="700" type="curve" name="_corner05"/>
      <point x="675" y="700" type="line" name="_corner04"/>
      <point x="718" y="596" type="line"/>
      <point x="652" y="433"/>
      <point x="585" y="271"/>
      <point x="519" y="110" type="curve" smooth="yes"/>
      <point x="513" y="93"/>
      <point x="506" y="73"/>
      <point x="502" y="73" type="curve" smooth="yes"/>
      <point x="497" y="73"/>
      <point x="489" y="91"/>
      <point x="479" y="112" type="curve" smooth="yes"/>
      <point x="380" y="308"/>
      <point x="281" y="504"/>
      <point x="182" y="700" type="curve" name="_corner01"/>
      <point x="108" y="700" type="line" name="_corner00"/>
      <point x="228" y="465"/>
      <point x="347" y="230"/>
      <point x="467" y="-7" type="curve"/>
      <point x="467" y="-9"/>
      <point x="471" y="-9"/>
    </contour>
  </outline>
</glyph>
<glyph name="X" format="2">
  <advance width="932"/>
  <unicode hex="0058"/>
  <guideline x="-7" y="575" angle="90"/>
  <guideline x="913" y="575" angle="90"/>
  <anchor x="463" y="0" name="bottom"/>
  <anchor x="463" y="700" name="top"/>
  <outline>
    <contour>
      <point x="108" y="0" type="curve" name="_corner01"/>
      <point x="177" y="0" type="line" name="_corner05"/>
      <point x="261" y="111"/>
      <point x="350" y="221"/>
      <point x="432" y="330" type="curve" smooth="yes"/>
      <point x="441" y="341"/>
      <point x="447" y="341"/>
      <point x="458" y="330" type="curve" smooth="yes"/>
      <point x="559" y="224"/>
      <point x="661" y="111"/>
      <point x="765" y="0" type="curve" name="_corner04"/>
      <point x="822" y="0" type="line"/>
      <point x="854" y="0"/>
      <point x="883" y="-4"/>
      <point x="921" y="-4" type="curve" smooth="yes"/>
      <point x="927" y="-4"/>
      <point x="932" y="-2"/>
      <point x="932" y="5" type="curve" smooth="yes"/>
      <point x="932" y="11"/>
      <point x="927" y="14"/>
      <point x="921" y="14" type="curve" smooth="yes"/>
      <point x="876" y="14"/>
      <point x="843" y="5"/>
      <point x="772" y="81" type="curve" smooth="yes"/>
      <point x="700" y="158"/>
      <point x="602" y="263"/>
      <point x="502" y="370" type="curve" smooth="yes"/>
      <point x="494" y="378"/>
      <point x="495" y="387"/>
      <point x="505" y="397" type="curve" smooth="yes"/>
      <point x="599" y="499"/>
      <point x="701" y="600"/>
      <point x="795" y="700" type="curve" name="_corner06"/>
      <point x="725" y="700" type="line" name="_corner02"/>
      <point x="646" y="601"/>
      <point x="568" y="498"/>
      <point x="487" y="407" type="curve" smooth="yes"/>
      <point x="477" y="395"/>
      <point x="471" y="395"/>
      <point x="461" y="407" type="curve" smooth="yes"/>
      <point x="375" y="504"/>
      <point x="286" y="601"/>
      <point x="198" y="700" type="curve" name="_corner03"/>
      <point x="113" y="700" type="line" name="_corner00"/>
      <point x="215" y="591"/>
      <point x="314" y="482"/>
      <point x="415" y="371" type="curve" smooth="yes"/>
      <point x="425" y="360"/>
      <point x="427" y="353"/>
      <point x="419" y="345" type="curve" smooth="yes"/>
      <point x="314" y="230"/>
      <point x="209" y="114"/>
    </contour>
  </outline>
</glyph>
<glyph name="Y" format="2">
  <advance width="939"/>
  <unicode hex="0059"/>
  <anchor x="471" y="0" name="bottom"/>
  <anchor x="471" y="700" name="top"/>
  <anchor x="251" y="700" name="topleft"/>
  <outline>
    <contour>
      <point x="183" y="700" type="curve" name="_corner02"/>
      <point x="108" y="700" type="line" name="_corner01"/>
      <point x="215" y="559"/>
      <point x="324" y="418"/>
      <point x="433" y="275" type="curve" smooth="yes"/>
      <point x="437" y="270"/>
      <point x="439" y="265"/>
      <point x="439" y="256" type="curve" smooth="yes"/>
      <point x="439" y="131"/>
      <point x="440" y="19"/>
      <point x="437" y="0" type="curve" name="_corner06"/>
      <point x="507" y="0" type="line" name="_corner05"/>
      <point x="503" y="54"/>
      <point x="501" y="150"/>
      <point x="500" y="255" type="curve" smooth="yes"/>
      <point x="500" y="264"/>
      <point x="502" y="269"/>
      <point x="505" y="274" type="curve"/>
      <point x="615" y="417"/>
      <point x="723" y="559"/>
      <point x="831" y="700" type="curve" name="_corner00"/>
      <point x="770" y="700" type="line" name="_corner03"/>
      <point x="689" y="576"/>
      <point x="607" y="454"/>
      <point x="526" y="332" type="curve" smooth="yes"/>
      <point x="504" y="298"/>
      <point x="495" y="297"/>
      <point x="490" y="297" type="curve" smooth="yes"/>
      <point x="482" y="297"/>
      <point x="471" y="303"/>
      <point x="441" y="344" type="curve" smooth="yes"/>
      <point x="356" y="462"/>
      <point x="270" y="580"/>
    </contour>
  </outline>
</glyph>
<glyph name="f" format="2">
  <advance width="443"/>
  <unicode hex="0066"/>
  <anchor x="176" y="0" name="bottom"/>
  <anchor x="176" y="758" name="top"/>
  <outline>
    <component base="_stem.short" xOffset="61" identifier="596B5D3C"/>
    <contour>
      <point x="137" y="90" type="line"/>
      <point x="135" y="0" type="line" name="_corner01"/>
      <point x="197" y="0" type="line" name="_corner00"/>
      <point x="195" y="90" type="line"/>
    </contour>
    <contour>
      <point x="137" y="347" type="line"/>
      <point x="195" y="347" type="line"/>
      <point x="195" y="444" type="line" smooth="yes"/>
      <point x="195" y="482"/>
      <point x="221" y="473"/>
      <point x="348" y="473" type="curve" smooth="yes"/>
      <point x="361" y="473"/>
      <point x="369" y="475"/>
      <point x="369" y="484" type="curve" smooth="yes"/>
      <point x="369" y="492"/>
      <point x="362" y="494"/>
      <point x="348" y="494" type="curve" smooth="yes"/>
      <point x="213" y="494"/>
      <point x="194" y="485"/>
      <point x="194" y="522" type="curve" smooth="yes"/>
      <point x="194" y="546"/>
      <point x="194" y="568"/>
      <point x="194" y="579" type="curve" smooth="yes"/>
      <point x="194" y="654"/>
      <point x="222" y="677"/>
      <point x="270" y="677" type="curve" smooth="yes"/>
      <point x="330" y="677"/>
      <point x="367" y="649"/>
      <point x="405" y="649" type="curve" smooth="yes"/>
      <point x="429" y="649"/>
      <point x="441" y="658"/>
      <point x="441" y="675" type="curve" smooth="yes"/>
      <point x="441" y="699"/>
      <point x="412" y="711"/>
      <point x="361" y="711" type="curve" smooth="yes"/>
      <point x="226" y="711"/>
      <point x="137" y="642"/>
      <point x="137" y="540" type="curve" smooth="yes"/>
      <point x="137" y="529" type="line" smooth="yes"/>
      <point x="137" y="504"/>
      <point x="128" y="499"/>
      <point x="102" y="496" type="curve" smooth="yes"/>
      <point x="74" y="493"/>
      <point x="47" y="496"/>
      <point x="47" y="482" type="curve" smooth="yes"/>
      <point x="47" y="474"/>
      <point x="54" y="474"/>
      <point x="70" y="474" type="curve" smooth="yes"/>
      <point x="102" y="474"/>
      <point x="137" y="483"/>
      <point x="137" y="447" type="curve" smooth="yes"/>
    </contour>
  </outline>
</glyph>
<glyph name="k" format="2">
  <advance width="766"/>
  <unicode hex="006B"/>
  <anchor x="361" y="0" name="bottom"/>
  <anchor x="361" y="758" name="top"/>
  <outline>
    <contour>
      <point x="112" y="597" type="curve" smooth="yes"/>
      <point x="112" y="80" type="line"/>
      <point x="170" y="80" type="line"/>
      <point x="170" y="139" type="line" smooth="yes"/>
      <point x="170" y="180"/>
      <point x="169" y="193"/>
      <point x="193" y="208" type="curve" smooth="yes"/>
      <point x="315" y="286" type="line" smooth="yes"/>
      <point x="331" y="297"/>
      <point x="331" y="297"/>
      <point x="349" y="278" type="curve" smooth="yes"/>
      <point x="434" y="186"/>
      <point x="520" y="94"/>
      <point x="607" y="0" type="curve" name="_corner00"/>
      <point x="681" y="0" type="line" name="_corner01"/>
      <point x="585" y="102"/>
      <point x="489" y="206"/>
      <point x="391" y="310" type="curve" smooth="yes"/>
      <point x="384" y="317"/>
      <point x="385" y="325"/>
      <point x="391" y="329" type="curve" smooth="yes"/>
      <point x="479" y="387"/>
      <point x="565" y="444"/>
      <point x="671" y="500" type="curve" name="_corner02"/>
      <point x="568" y="500" type="line" name="_corner03"/>
      <point x="452" y="406"/>
      <point x="318" y="315"/>
      <point x="184" y="223" type="curve" smooth="yes"/>
      <point x="169" y="213"/>
      <point x="167" y="214"/>
      <point x="167" y="229" type="curve" smooth="yes"/>
      <point x="168" y="447" type="line" smooth="yes"/>
      <point x="169" y="645"/>
      <point x="172" y="690"/>
      <point x="172" y="702" type="curve" smooth="yes"/>
      <point x="172" y="709"/>
      <point x="166" y="711"/>
      <point x="161" y="711" type="curve" smooth="yes"/>
      <point x="149" y="711"/>
      <point x="147" y="699"/>
      <point x="118" y="679" type="curve" smooth="yes"/>
      <point x="82" y="653"/>
      <point x="62" y="658"/>
      <point x="62" y="646" type="curve" smooth="yes"/>
      <point x="62" y="640"/>
      <point x="68" y="638"/>
      <point x="73" y="638" type="curve" smooth="yes"/>
      <point x="101" y="638"/>
      <point x="112" y="628"/>
    </contour>
    <component base="_stem.foot" xOffset="46"/>
  </outline>
</glyph>
<glyph name="m" format="2">
  <advance width="1271"/>
  <unicode hex="006D"/>
  <anchor x="636" y="0" name="bottom"/>
  <anchor x="636" y="500" name="top"/>
  <outline>
    <component base="_stem.short.top" xOffset="60" identifier="6BDEFFF9"/>
    <component base="_stem.short" xOffset="61" identifier="72D53CA1"/>
    <contour>
      <point x="612" y="0" type="line" name="_corner01"/>
      <point x="668" y="0" type="line" name="_corner00"/>
      <point x="668" y="122"/>
      <point x="668" y="245"/>
      <point x="668" y="290" type="curve" smooth="yes"/>
      <point x="668" y="442"/>
      <point x="601" y="510"/>
      <point x="447" y="510" type="curve" smooth="yes"/>
      <point x="328" y="510"/>
      <point x="252" y="463"/>
      <point x="199" y="359" type="curve" smooth="yes"/>
      <point x="195" y="351"/>
      <point x="193" y="348"/>
      <point x="192" y="348" type="curve" smooth="yes"/>
      <point x="163" y="348" type="line"/>
      <point x="163" y="227" type="line"/>
      <point x="195" y="227" type="line"/>
      <point x="195" y="380"/>
      <point x="284" y="474"/>
      <point x="427" y="474" type="curve" smooth="yes"/>
      <point x="560" y="474"/>
      <point x="612" y="420"/>
      <point x="612" y="275" type="curve" smooth="yes"/>
    </contour>
    <component base="_stem.foot" xOffset="71"/>
    <component base="_n.side" xScale="0.95" xOffset="550"/>
  </outline>
</glyph>
<glyph name="n" format="2">
  <advance width="828"/>
  <unicode hex="006E"/>
  <anchor x="414" y="0" name="bottom"/>
  <anchor x="414" y="500" name="top"/>
  <outline>
    <contour>
      <point x="137" y="392" type="curve" smooth="yes"/>
      <point x="137" y="90" type="line"/>
      <point x="135" y="0" type="line" name="_corner02"/>
      <point x="197" y="0" type="line" name="_corner03"/>
      <point x="195" y="90" type="line"/>
      <point x="195" y="227" type="line" smooth="yes"/>
      <point x="195" y="380"/>
      <point x="289" y="474"/>
      <point x="439" y="474" type="curve" smooth="yes"/>
      <point x="580" y="474"/>
      <point x="634" y="420"/>
      <point x="634" y="275" type="curve" smooth="yes"/>
      <point x="634" y="0" type="line" name="_corner01"/>
      <point x="693" y="0" type="line" name="_corner00"/>
      <point x="693" y="290" type="line" smooth="yes"/>
      <point x="693" y="442"/>
      <point x="622" y="510"/>
      <point x="460" y="510" type="curve" smooth="yes"/>
      <point x="335" y="510"/>
      <point x="247" y="463"/>
      <point x="199" y="359" type="curve" smooth="yes"/>
      <point x="196" y="353"/>
      <point x="195" y="348"/>
      <point x="192" y="348" type="curve" smooth="yes"/>
      <point x="189" y="348"/>
      <point x="189" y="354"/>
      <point x="189" y="360" type="curve" smooth="yes"/>
      <point x="189" y="453"/>
      <point x="205" y="489"/>
      <point x="205" y="497" type="curve" smooth="yes"/>
      <point x="205" y="504"/>
      <point x="199" y="506"/>
      <point x="194" y="506" type="curve" smooth="yes"/>
      <point x="179" y="506"/>
      <point x="179" y="486"/>
      <point x="122" y="464" type="curve" smooth="yes"/>
      <point x="70" y="443"/>
      <point x="41" y="448"/>
      <point x="41" y="436" type="curve" smooth="yes"/>
      <point x="41" y="432"/>
      <point x="46" y="429"/>
      <point x="53" y="429" type="curve" smooth="yes"/>
      <point x="130" y="429"/>
      <point x="137" y="432"/>
    </contour>
  </outline>
</glyph>
<glyph name="q" format="2">
  <advance width="740"/>
  <unicode hex="0071"/>
  <anchor x="520" y="0" name="bottom"/>
  <anchor x="520" y="500" name="top"/>
  <outline>
    <component base="_b.bowl" xScale="-1" yScale="-1" xOffset="686" yOffset="500" identifier="CC4D1479"/>
    <contour>
      <point x="620" y="49" type="curve"/>
      <point x="568" y="49" type="line"/>
      <point x="568" y="0" type="line" smooth="yes"/>
      <point x="568" y="-48"/>
      <point x="567" y="-156"/>
      <point x="563" y="-196" type="curve" name="_corner00"/>
      <point x="625" y="-196" type="line" name="_corner01"/>
      <point x="619" y="-113"/>
      <point x="620" y="14"/>
    </contour>
  </outline>
</glyph>
<glyph name="r" format="2">
  <advance width="512"/>
  <unicode hex="0072"/>
  <anchor x="216" y="0" name="bottom"/>
  <anchor x="255" y="500" name="top"/>
  <outline>
    <contour>
      <point x="139" y="392" type="curve" smooth="yes"/>
      <point x="139" y="120" type="line"/>
      <point x="135" y="0" type="line" name="_corner00"/>
      <point x="201" y="0" type="line" name="_corner01"/>
      <point x="197" y="120" type="line"/>
      <point x="197" y="208" type="line" smooth="yes"/>
      <point x="197" y="369"/>
      <point x="261" y="450"/>
      <point x="380" y="450" type="curve" smooth="yes"/>
      <point x="415" y="450"/>
      <point x="422" y="445"/>
      <point x="440" y="445" type="curve" smooth="yes"/>
      <point x="459" y="445"/>
      <point x="472" y="459"/>
      <point x="472" y="477" type="curve" smooth="yes"/>
      <point x="472" y="497"/>
      <point x="456" y="510"/>
      <point x="433" y="510" type="curve" smooth="yes"/>
      <point x="337" y="510"/>
      <point x="254" y="458"/>
      <point x="205" y="367" type="curve" smooth="yes"/>
      <point x="201" y="359"/>
      <point x="197" y="348"/>
      <point x="194" y="348" type="curve" smooth="yes"/>
      <point x="192" y="348"/>
      <point x="191" y="351"/>
      <point x="191" y="360" type="curve" smooth="yes"/>
      <point x="191" y="453"/>
      <point x="207" y="489"/>
      <point x="207" y="497" type="curve" smooth="yes"/>
      <point x="207" y="504"/>
      <point x="201" y="506"/>
      <point x="196" y="506" type="curve" smooth="yes"/>
      <point x="181" y="506"/>
      <point x="181" y="486"/>
      <point x="124" y="464" type="curve" smooth="yes"/>
      <point x="72" y="443"/>
      <point x="43" y="448"/>
      <point x="43" y="436" type="curve" smooth="yes"/>
      <point x="43" y="432"/>
      <point x="48" y="429"/>
      <point x="55" y="429" type="curve" smooth="yes"/>
      <point x="132" y="429"/>
      <point x="139" y="432"/>
    </contour>
  </outline>
</glyph>
<glyph name="u" format="2">
  <advance width="799"/>
  <unicode hex="0075"/>
  <guideline x="578" y="344" angle="270"/>
  <anchor x="410" y="0" name="bottom"/>
  <anchor x="737" y="10" name="ogonek"/>
  <anchor x="373" y="500" name="top"/>
  <anchor x="799" y="500" name="topright"/>
  <outline>
    <component base="_stem.short" xScale="-1" yScale="-1" xOffset="757" yOffset="520" identifier="4DBD7FAD"/>
    <contour>
      <point x="681" y="275" type="line"/>
      <point x="623" y="275" type="line"/>
      <point x="623" y="253" type="line" smooth="yes"/>
      <point x="623" y="101"/>
      <point x="545" y="27"/>
      <point x="387" y="27" type="curve" smooth="yes"/>
      <point x="239" y="27"/>
      <point x="182" y="83"/>
      <point x="182" y="226" type="curve" smooth="yes"/>
      <point x="182" y="360" type="line" smooth="yes"/>
      <point x="182" y="389"/>
      <point x="183" y="412"/>
      <point x="184" y="431" type="curve" smooth="yes"/>
      <point x="187" y="489"/>
      <point x="196" y="501"/>
      <point x="151" y="500" type="curve" smooth="yes"/>
      <point x="120" y="499" type="line" name="_corner00"/>
      <point x="123" y="421" type="line"/>
      <point x="123" y="223" type="line" smooth="yes"/>
      <point x="123" y="62"/>
      <point x="198" y="-10"/>
      <point x="369" y="-10" type="curve" smooth="yes"/>
      <point x="479" y="-10"/>
      <point x="558" y="30"/>
      <point x="615" y="112" type="curve" smooth="yes"/>
      <point x="619" y="118"/>
      <point x="621" y="123"/>
      <point x="624" y="123" type="curve" smooth="yes"/>
      <point x="627" y="123"/>
      <point x="627" y="117"/>
      <point x="627" y="111" type="curve" smooth="yes"/>
      <point x="627" y="68"/>
      <point x="613" y="-2"/>
      <point x="657" y="0" type="curve" smooth="yes"/>
      <point x="684" y="1" type="line" name="_corner01"/>
      <point x="684" y="89"/>
      <point x="681" y="89"/>
      <point x="681" y="246" type="curve" smooth="yes"/>
    </contour>
    <contour>
      <point x="623" y="498" type="line" name="_corner02"/>
      <point x="623" y="370" type="line"/>
      <point x="681" y="370" type="line"/>
      <point x="681" y="441"/>
      <point x="683" y="462"/>
      <point x="683" y="483" type="curve" smooth="yes"/>
      <point x="683" y="494"/>
      <point x="677" y="501"/>
      <point x="663" y="500" type="curve" smooth="yes"/>
    </contour>
  </outline>
</glyph>
<glyph name="v" format="2">
  <advance width="785"/>
  <unicode hex="0076"/>
  <anchor x="393" y="0" name="bottom"/>
  <anchor x="393" y="500" name="top"/>
  <outline>
    <contour>
      <point x="178" y="500" type="curve" name="_corner03"/>
      <point x="98" y="500" type="line" name="_corner00"/>
      <point x="198" y="334"/>
      <point x="288" y="168"/>
      <point x="373" y="-1" type="curve" smooth="yes"/>
      <point x="376" y="-6"/>
      <point x="380" y="-8"/>
      <point x="385" y="-8" type="curve" smooth="yes"/>
      <point x="390" y="-8" type="line" smooth="yes"/>
      <point x="395" y="-8"/>
      <point x="399" y="-6"/>
      <point x="402" y="-1" type="curve" smooth="yes"/>
      <point x="493" y="168"/>
      <point x="585" y="334"/>
      <point x="687" y="500" type="curve" name="_corner01"/>
      <point x="613" y="500" type="line" name="_corner02"/>
      <point x="572" y="371"/>
      <point x="482" y="193"/>
      <point x="435" y="108" type="curve" smooth="yes"/>
      <point x="426" y="90"/>
      <point x="419" y="77"/>
      <point x="410" y="77" type="curve" smooth="yes"/>
      <point x="403" y="77"/>
      <point x="395" y="88"/>
      <point x="386" y="105" type="curve" smooth="yes"/>
      <point x="325" y="213"/>
      <point x="242" y="370"/>
    </contour>
  </outline>
</glyph>
<glyph name="w" format="2">
  <advance width="1155"/>
  <unicode hex="0077"/>
  <anchor x="573" y="0" name="bottom"/>
  <anchor x="573" y="500" name="top"/>
  <outline>
    <contour>
      <point x="167" y="500" type="curve" name="_corner05"/>
      <point x="95" y="500" type="line" name="_corner03"/>
      <point x="184" y="334"/>
      <point x="273" y="166"/>
      <point x="362" y="-2" type="curve" smooth="yes"/>
      <point x="364" y="-6"/>
      <point x="368" y="-8"/>
      <point x="373" y="-8" type="curve" smooth="yes"/>
      <point x="379" y="-8" type="line" smooth="yes"/>
      <point x="384" y="-8"/>
      <point x="388" y="-6"/>
      <point x="390" y="-2" type="curve" smooth="yes"/>
      <point x="447" y="110"/>
      <point x="506" y="222"/>
      <point x="565" y="332" type="curve" smooth="yes"/>
      <point x="572" y="346"/>
      <point x="574" y="349"/>
      <point x="574" y="349" type="curve"/>
      <point x="574" y="349"/>
      <point x="577" y="346"/>
      <point x="583" y="332" type="curve" smooth="yes"/>
      <point x="639" y="222"/>
      <point x="695" y="110"/>
      <point x="751" y="-2" type="curve" smooth="yes"/>
      <point x="753" y="-6"/>
      <point x="757" y="-8"/>
      <point x="762" y="-8" type="curve" smooth="yes"/>
      <point x="768" y="-8" type="line" smooth="yes"/>
      <point x="774" y="-8"/>
      <point x="776" y="-6"/>
      <point x="779" y="-2" type="curve"/>
      <point x="870" y="166"/>
      <point x="965" y="334"/>
      <point x="1060" y="500" type="curve" name="_corner01"/>
      <point x="1004" y="500" type="line" name="_corner02"/>
      <point x="943" y="368"/>
      <point x="879" y="238"/>
      <point x="814" y="108" type="curve" smooth="yes"/>
      <point x="806" y="90"/>
      <point x="798" y="77"/>
      <point x="790" y="77" type="curve" smooth="yes"/>
      <point x="781" y="77"/>
      <point x="773" y="87"/>
      <point x="764" y="105" type="curve" smooth="yes"/>
      <point x="707" y="217"/>
      <point x="651" y="331"/>
      <point x="594" y="445" type="curve" smooth="yes"/>
      <point x="564" y="500" type="line" name="_corner04"/>
      <point x="496" y="500" type="line" name="_corner00"/>
      <point x="547" y="399" type="line" smooth="yes"/>
      <point x="550" y="393"/>
      <point x="551" y="388"/>
      <point x="548" y="381" type="curve" smooth="yes"/>
      <point x="509" y="289"/>
      <point x="466" y="198"/>
      <point x="422" y="108" type="curve" smooth="yes"/>
      <point x="414" y="90"/>
      <point x="407" y="77"/>
      <point x="396" y="77" type="curve" smooth="yes"/>
      <point x="389" y="77"/>
      <point x="380" y="87"/>
      <point x="371" y="105" type="curve" smooth="yes"/>
      <point x="303" y="236"/>
      <point x="235" y="367"/>
    </contour>
  </outline>
</glyph>
<glyph name="x" format="2">
  <advance width="771"/>
  <unicode hex="0078"/>
  <anchor x="462" y="0" name="bottom"/>
  <anchor x="462" y="500" name="top"/>
  <outline>
    <contour>
      <point x="586" y="0" type="curve" name="_corner07"/>
      <point x="676" y="0" type="line" name="_corner00"/>
      <point x="593" y="84"/>
      <point x="507" y="172"/>
      <point x="423" y="258" type="curve" smooth="yes"/>
      <point x="418" y="263"/>
      <point x="419" y="271"/>
      <point x="424" y="275" type="curve" smooth="yes"/>
      <point x="504" y="352"/>
      <point x="583" y="426"/>
      <point x="669" y="500" type="curve" name="_corner01"/>
      <point x="573" y="500" type="line" name="_corner02"/>
      <point x="520" y="428"/>
      <point x="460" y="349"/>
      <point x="409" y="288" type="curve" smooth="yes"/>
      <point x="407" y="286"/>
      <point x="405" y="282"/>
      <point x="401" y="282" type="curve" smooth="yes"/>
      <point x="397" y="282"/>
      <point x="394" y="286"/>
      <point x="392" y="288" type="curve" smooth="yes"/>
      <point x="325" y="358"/>
      <point x="270" y="428"/>
      <point x="207" y="500" type="curve" name="_corner03"/>
      <point x="117" y="500" type="line" name="_corner04"/>
      <point x="198" y="419"/>
      <point x="270" y="339"/>
      <point x="349" y="256" type="curve" smooth="yes"/>
      <point x="353" y="251"/>
      <point x="353" y="243"/>
      <point x="349" y="239" type="curve" smooth="yes"/>
      <point x="268" y="158"/>
      <point x="182" y="78"/>
      <point x="95" y="0" type="curve" name="_corner05"/>
      <point x="191" y="0" type="line" name="_corner06"/>
      <point x="248" y="75"/>
      <point x="311" y="161"/>
      <point x="361" y="224" type="curve" smooth="yes"/>
      <point x="363" y="226"/>
      <point x="366" y="231"/>
      <point x="369" y="231" type="curve" smooth="yes"/>
      <point x="372" y="231"/>
      <point x="374" y="227"/>
      <point x="378" y="223" type="curve" smooth="yes"/>
      <point x="446" y="154"/>
      <point x="523" y="75"/>
    </contour>
  </outline>
</glyph>
<glyph name="y" format="2">
  <advance width="775"/>
  <unicode hex="0079"/>
  <anchor x="388" y="0" name="bottom"/>
  <anchor x="388" y="500" name="top"/>
  <outline>
    <contour>
      <point x="171" y="500" type="curve" name="_corner03"/>
      <point x="98" y="500" type="line" name="_corner00"/>
      <point x="186" y="341"/>
      <point x="273" y="181"/>
      <point x="361" y="20" type="curve" smooth="yes"/>
      <point x="368" y="9"/>
      <point x="374" y="-10"/>
      <point x="350" y="-49" type="curve" smooth="yes"/>
      <point x="283" y="-160"/>
      <point x="239" y="-184"/>
      <point x="187" y="-144" type="curve" smooth="yes"/>
      <point x="168" y="-129"/>
      <point x="156" y="-118"/>
      <point x="135" y="-118" type="curve" smooth="yes"/>
      <point x="112" y="-118"/>
      <point x="95" y="-130"/>
      <point x="95" y="-150" type="curve" smooth="yes"/>
      <point x="95" y="-177"/>
      <point x="122" y="-194"/>
      <point x="171" y="-194" type="curve" smooth="yes"/>
      <point x="268" y="-194"/>
      <point x="327" y="-146"/>
      <point x="402" y="-8" type="curve" smooth="yes"/>
      <point x="494" y="162"/>
      <point x="559" y="293"/>
      <point x="677" y="500" type="curve" name="_corner01"/>
      <point x="614" y="500" type="line" name="_corner02"/>
      <point x="538" y="310"/>
      <point x="475" y="177"/>
      <point x="434" y="107" type="curve" smooth="yes"/>
      <point x="422" y="85"/>
      <point x="415" y="76"/>
      <point x="406" y="76" type="curve" smooth="yes"/>
      <point x="398" y="76"/>
      <point x="392" y="85"/>
      <point x="382" y="104" type="curve" smooth="yes"/>
      <point x="312" y="235"/>
      <point x="241" y="367"/>
    </contour>
  </outline>
</glyph>
<glyph name="yen" format="2">
  <advance width="939"/>
  <unicode hex="00A5"/>
  <anchor x="471" y="0" name="bottom"/>
  <anchor x="471" y="700" name="top"/>
  <anchor x="251" y="700" name="topleft"/>
  <outline>
    <contour>
      <point x="183" y="700" type="curve" name="_corner02"/>
      <point x="108" y="700" type="line" name="_corner01"/>
      <point x="213" y="563"/>
      <point x="317" y="426"/>
      <point x="422" y="289" type="curve" smooth="yes"/>
      <point x="426" y="282"/>
      <point x="425" y="280"/>
      <point x="418" y="280" type="curve" smooth="yes"/>
      <point x="251" y="281" type="line" smooth="yes"/>
      <point x="244" y="281"/>
      <point x="241" y="280"/>
      <point x="240" y="277" type="curve" smooth="yes"/>
      <point x="239" y="274"/>
      <point x="238" y="270"/>
      <point x="238" y="268" type="curve" smooth="yes"/>
      <point x="238" y="265"/>
      <point x="240" y="264"/>
      <point x="246" y="264" type="curve" smooth="yes"/>
      <point x="432" y="265" type="line" smooth="yes"/>
      <point x="437" y="265"/>
      <point x="439" y="264"/>
      <point x="439" y="259" type="curve" smooth="yes"/>
      <point x="439" y="258"/>
      <point x="439" y="237"/>
      <point x="439" y="198" type="curve" smooth="yes"/>
      <point x="439" y="193"/>
      <point x="437" y="191"/>
      <point x="432" y="191" type="curve" smooth="yes"/>
      <point x="251" y="192" type="line" smooth="yes"/>
      <point x="244" y="192"/>
      <point x="241" y="191"/>
      <point x="240" y="188" type="curve" smooth="yes"/>
      <point x="239" y="185"/>
      <point x="238" y="181"/>
      <point x="238" y="179" type="curve" smooth="yes"/>
      <point x="238" y="176"/>
      <point x="240" y="175"/>
      <point x="246" y="175" type="curve" smooth="yes"/>
      <point x="432" y="176" type="line" smooth="yes"/>
      <point x="437" y="176"/>
      <point x="439" y="174"/>
      <point x="439" y="169" type="curve" smooth="yes"/>
      <point x="439" y="82"/>
      <point x="439" y="15"/>
      <point x="437" y="0" type="curve" name="_corner06"/>
      <point x="507" y="0" type="line" name="_corner05"/>
      <point x="504" y="39"/>
      <point x="502" y="99"/>
      <point x="501" y="169" type="curve" smooth="yes"/>
      <point x="501" y="174"/>
      <point x="503" y="176"/>
      <point x="508" y="176" type="curve" smooth="yes"/>
      <point x="684" y="175" type="line" smooth="yes"/>
      <point x="691" y="175"/>
      <point x="692" y="177"/>
      <point x="695" y="180" type="curve" smooth="yes"/>
      <point x="697" y="182"/>
      <point x="698" y="185"/>
      <point x="698" y="187" type="curve" smooth="yes"/>
      <point x="698" y="191"/>
      <point x="695" y="192"/>
      <point x="689" y="192" type="curve" smooth="yes"/>
      <point x="508" y="191" type="line" smooth="yes"/>
      <point x="503" y="191"/>
      <point x="501" y="193"/>
      <point x="501" y="198" type="curve" smooth="yes"/>
      <point x="500" y="267"/>
      <point x="500" y="249"/>
      <point x="500" y="260" type="curve" smooth="yes"/>
      <point x="500" y="264"/>
      <point x="502" y="265"/>
      <point x="507" y="265" type="curve" smooth="yes"/>
      <point x="684" y="264" type="line" smooth="yes"/>
      <point x="691" y="264"/>
      <point x="692" y="266"/>
      <point x="695" y="269" type="curve" smooth="yes"/>
      <point x="697" y="271"/>
      <point x="698" y="274"/>
      <point x="698" y="276" type="curve" smooth="yes"/>
      <point x="698" y="280"/>
      <point x="695" y="281"/>
      <point x="689" y="281" type="curve" smooth="yes"/>
      <point x="521" y="280" type="line" smooth="yes"/>
      <point x="514" y="280"/>
      <point x="513" y="282"/>
      <point x="517" y="289" type="curve" smooth="yes"/>
      <point x="622" y="426"/>
      <point x="726" y="563"/>
      <point x="831" y="700" type="curve" name="_corner00"/>
      <point x="770" y="700" type="line" name="_corner03"/>
      <point x="689" y="576"/>
      <point x="607" y="454"/>
      <point x="526" y="332" type="curve" smooth="yes"/>
      <point x="504" y="298"/>
      <point x="495" y="297"/>
      <point x="490" y="297" type="curve" smooth="yes"/>
      <point x="482" y="297"/>
      <point x="471" y="303"/>
      <point x="441" y="344" type="curve" smooth="yes"/>
      <point x="355" y="463"/>
      <point x="269" y="581"/>
    </contour>
  </outline>
</glyph>
<glyph name="micro" format="2">
  <advance width="786"/>
  <unicode hex="00B5"/>
  <outline>
    <contour>
      <point x="130" y="-210" type="curve" smooth="yes"/>
      <point x="150" y="-210"/>
      <point x="162" y="-194"/>
      <point x="162" y="-168" type="curve" smooth="yes"/>
      <point x="162" y="-115"/>
      <point x="140" y="-96"/>
      <point x="140" y="-32" type="curve" smooth="yes"/>
      <point x="140" y="-7"/>
      <point x="141" y="35"/>
      <point x="141" y="53" type="curve" smooth="yes"/>
      <point x="141" y="59"/>
      <point x="141" y="65"/>
      <point x="145" y="65" type="curve" smooth="yes"/>
      <point x="148" y="65"/>
      <point x="152" y="59"/>
      <point x="158" y="53" type="curve" smooth="yes"/>
      <point x="190" y="23"/>
      <point x="245" y="-10"/>
      <point x="360" y="-10" type="curve" smooth="yes"/>
      <point x="466" y="-10"/>
      <point x="545" y="30"/>
      <point x="602" y="112" type="curve" smooth="yes"/>
      <point x="606" y="118"/>
      <point x="608" y="123"/>
      <point x="611" y="123" type="curve" smooth="yes"/>
      <point x="614" y="123"/>
      <point x="614" y="117"/>
      <point x="614" y="111" type="curve" smooth="yes"/>
      <point x="614" y="68"/>
      <point x="600" y="-2"/>
      <point x="644" y="0" type="curve" smooth="yes"/>
      <point x="671" y="1" type="line" name="_corner00"/>
      <point x="671" y="89"/>
      <point x="667" y="103"/>
      <point x="667" y="260" type="curve" smooth="yes"/>
      <point x="667" y="312"/>
      <point x="666" y="338"/>
      <point x="669" y="431" type="curve" smooth="yes"/>
      <point x="671" y="493"/>
      <point x="675" y="500"/>
      <point x="638" y="500" type="curve" smooth="yes"/>
      <point x="598" y="500"/>
      <point x="605" y="493"/>
      <point x="608" y="431" type="curve" smooth="yes"/>
      <point x="612" y="352"/>
      <point x="611" y="311"/>
      <point x="611" y="262" type="curve" smooth="yes"/>
      <point x="611" y="104"/>
      <point x="532" y="27"/>
      <point x="374" y="27" type="curve" smooth="yes"/>
      <point x="226" y="27"/>
      <point x="169" y="83"/>
      <point x="169" y="226" type="curve" smooth="yes"/>
      <point x="169" y="360" type="line" smooth="yes"/>
      <point x="169" y="389"/>
      <point x="170" y="412"/>
      <point x="171" y="431" type="curve" smooth="yes"/>
      <point x="174" y="493"/>
      <point x="179" y="500"/>
      <point x="139" y="500" type="curve" smooth="yes"/>
      <point x="103" y="500"/>
      <point x="106" y="493"/>
      <point x="109" y="431" type="curve" smooth="yes"/>
      <point x="110" y="412"/>
      <point x="111" y="395"/>
      <point x="111" y="360" type="curve" smooth="yes"/>
      <point x="112" y="230" type="line" smooth="yes"/>
      <point x="113" y="130"/>
      <point x="119" y="95"/>
      <point x="119" y="-24" type="curve" smooth="yes"/>
      <point x="119" y="-88"/>
      <point x="98" y="-113"/>
      <point x="98" y="-166" type="curve" smooth="yes"/>
      <point x="98" y="-192"/>
      <point x="110" y="-210"/>
    </contour>
  </outline>
</glyph>
<glyph name="paragraph" format="2">
  <advance width="599"/>
  <unicode hex="00B6"/>
  <outline>
    <contour>
      <point x="300" y="0" type="curve" smooth="yes"/>
      <point x="471" y="0" type="line" name="_corner00"/>
      <point x="472" y="233"/>
      <point x="472" y="467"/>
      <point x="471" y="700" type="curve" name="_corner01"/>
      <point x="434" y="700"/>
      <point x="353" y="700"/>
      <point x="288" y="701" type="curve" smooth="yes"/>
      <point x="120" y="704"/>
      <point x="27" y="632"/>
      <point x="27" y="502" type="curve" smooth="yes"/>
      <point x="27" y="383"/>
      <point x="123" y="300"/>
      <point x="268" y="297" type="curve" smooth="yes"/>
      <point x="271" y="297"/>
      <point x="270" y="297"/>
      <point x="271" y="295" type="curve"/>
      <point x="268" y="41" type="line" smooth="yes" name="_corner02"/>
      <point x="268" y="10"/>
      <point x="247" y="14"/>
      <point x="191" y="14" type="curve" smooth="yes"/>
      <point x="181" y="14"/>
      <point x="176" y="9"/>
      <point x="176" y="5" type="curve" smooth="yes"/>
      <point x="176" y="0"/>
      <point x="181" y="-4"/>
      <point x="191" y="-4" type="curve" smooth="yes"/>
      <point x="240" y="-4"/>
      <point x="269" y="0"/>
    </contour>
    <contour>
      <point x="339" y="61" type="curve" smooth="yes"/>
      <point x="346" y="639" type="line" smooth="yes" name="_corner03"/>
      <point x="346" y="673"/>
      <point x="360" y="685"/>
      <point x="399" y="685" type="curve" smooth="yes"/>
      <point x="434" y="685"/>
      <point x="447" y="673"/>
      <point x="448" y="636" type="curve" smooth="yes"/>
      <point x="453" y="443"/>
      <point x="454" y="286"/>
      <point x="449" y="61" type="curve" smooth="yes"/>
      <point x="448" y="25"/>
      <point x="433" y="13"/>
      <point x="393" y="13" type="curve" smooth="yes"/>
      <point x="353" y="13"/>
      <point x="338" y="25"/>
    </contour>
  </outline>
</glyph>
<glyph name="AE" format="2">
  <advance width="967"/>
  <unicode hex="00C6"/>
  <anchor x="482" y="0" name="bottom"/>
  <anchor x="482" y="700" name="top"/>
  <outline>
    <contour>
      <point x="108" y="0" type="curve" name="_corner00"/>
      <point x="173" y="0" type="line" name="_corner01"/>
      <point x="220" y="97"/>
      <point x="264" y="194"/>
      <point x="312" y="289" type="curve" smooth="yes"/>
      <point x="338" y="341"/>
      <point x="347" y="341"/>
      <point x="439" y="341" type="curve" smooth="yes"/>
      <point x="490" y="341"/>
      <point x="494" y="337"/>
      <point x="493" y="306" type="curve"/>
      <point x="527" y="349" type="line"/>
      <point x="493" y="392" type="line"/>
      <point x="494" y="361"/>
      <point x="490" y="357"/>
      <point x="439" y="357" type="curve" smooth="yes"/>
      <point x="355" y="357"/>
      <point x="344" y="359"/>
      <point x="370" y="410" type="curve" smooth="yes"/>
      <point x="396" y="465"/>
      <point x="424" y="519"/>
      <point x="460" y="587" type="curve" smooth="yes"/>
      <point x="470" y="607"/>
      <point x="473" y="611"/>
      <point x="480" y="611" type="curve" smooth="yes"/>
      <point x="486" y="611"/>
      <point x="492" y="606"/>
      <point x="492" y="581" type="curve"/>
      <point x="521" y="563" type="line"/>
      <point x="505" y="695" type="line"/>
      <point x="435" y="688" type="line"/>
      <point x="472" y="684"/>
      <point x="492" y="685"/>
      <point x="455" y="618" type="curve" smooth="yes"/>
      <point x="341" y="411"/>
      <point x="226" y="205"/>
    </contour>
    <contour>
      <point x="921" y="-6" type="curve" smooth="yes"/>
      <point x="928" y="-6"/>
      <point x="933" y="-3"/>
      <point x="932" y="5" type="curve" smooth="yes"/>
      <point x="930" y="19"/>
      <point x="925" y="40"/>
      <point x="925" y="80" type="curve" smooth="yes"/>
      <point x="925" y="144"/>
      <point x="930" y="175"/>
      <point x="932" y="208" type="curve" smooth="yes"/>
      <point x="933" y="217"/>
      <point x="928" y="220"/>
      <point x="921" y="220" type="curve" smooth="yes"/>
      <point x="914" y="220"/>
      <point x="910" y="216"/>
      <point x="910" y="208" type="curve" smooth="yes"/>
      <point x="910" y="33"/>
      <point x="894" y="13"/>
      <point x="618" y="13" type="curve" smooth="yes"/>
      <point x="560" y="13"/>
      <point x="558" y="14"/>
      <point x="556" y="87" type="curve"/>
      <point x="541" y="87" type="line"/>
      <point x="542" y="0" type="line"/>
      <point x="901" y="0"/>
      <point x="909" y="-6"/>
    </contour>
    <contour>
      <point x="522" y="0" type="curve" smooth="yes"/>
      <point x="559" y="0" type="line"/>
      <point x="559" y="700" type="line" name="_corner04"/>
      <point x="489" y="700" type="line" name="_corner02"/>
      <point x="489" y="71" type="line" smooth="yes" name="_corner03"/>
      <point x="489" y="10"/>
      <point x="468" y="13"/>
      <point x="403" y="13" type="curve" smooth="yes"/>
      <point x="393" y="13"/>
      <point x="388" y="8"/>
      <point x="388" y="4" type="curve" smooth="yes"/>
      <point x="388" y="-1"/>
      <point x="393" y="-5"/>
      <point x="403" y="-5" type="curve" smooth="yes"/>
      <point x="463" y="-5"/>
      <point x="492" y="0"/>
    </contour>
    <contour>
      <point x="744" y="233" type="curve" smooth="yes"/>
      <point x="750" y="233"/>
      <point x="755" y="235"/>
      <point x="755" y="244" type="curve" smooth="yes"/>
      <point x="755" y="266"/>
      <point x="744" y="292"/>
      <point x="744" y="352" type="curve" smooth="yes"/>
      <point x="744" y="416"/>
      <point x="755" y="436"/>
      <point x="755" y="456" type="curve" smooth="yes"/>
      <point x="755" y="465"/>
      <point x="750" y="467"/>
      <point x="744" y="467" type="curve" smooth="yes"/>
      <point x="737" y="467"/>
      <point x="733" y="463"/>
      <point x="733" y="455" type="curve" smooth="yes"/>
      <point x="733" y="373"/>
      <point x="715" y="364"/>
      <point x="623" y="360" type="curve" smooth="yes"/>
      <point x="558" y="357"/>
      <point x="554" y="359"/>
      <point x="554" y="433" type="curve"/>
      <point x="539" y="433" type="line"/>
      <point x="539" y="275" type="line"/>
      <point x="554" y="275" type="line"/>
      <point x="554" y="345"/>
      <point x="558" y="347"/>
      <point x="623" y="344" type="curve" smooth="yes"/>
      <point x="715" y="340"/>
      <point x="733" y="324"/>
      <point x="733" y="245" type="curve" smooth="yes"/>
      <point x="733" y="237"/>
      <point x="737" y="233"/>
    </contour>
    <contour>
      <point x="885" y="480" type="curve" smooth="yes"/>
      <point x="892" y="480"/>
      <point x="897" y="483"/>
      <point x="896" y="492" type="curve" smooth="yes"/>
      <point x="894" y="525"/>
      <point x="889" y="556"/>
      <point x="889" y="620" type="curve" smooth="yes"/>
      <point x="889" y="660"/>
      <point x="894" y="681"/>
      <point x="896" y="695" type="curve" smooth="yes"/>
      <point x="897" y="703"/>
      <point x="892" y="706"/>
      <point x="885" y="706" type="curve" smooth="yes"/>
      <point x="873" y="706"/>
      <point x="865" y="700"/>
      <point x="542" y="700" type="curve"/>
      <point x="541" y="613" type="line"/>
      <point x="556" y="613" type="line"/>
      <point x="558" y="686"/>
      <point x="560" y="687"/>
      <point x="618" y="687" type="curve" smooth="yes"/>
      <point x="858" y="687"/>
      <point x="874" y="667"/>
      <point x="874" y="492" type="curve" smooth="yes"/>
      <point x="874" y="484"/>
      <point x="878" y="480"/>
    </contour>
  </outline>
</glyph>
<glyph name="Thorn" format="2">
  <advance width="736"/>
  <unicode hex="00DE"/>
  <anchor x="368" y="0" name="bottom"/>
  <anchor x="368" y="700" name="top"/>
  <outline>
    <contour>
      <point x="185" y="75" type="line"/>
      <point x="205" y="75" type="line"/>
      <point x="205" y="107"/>
      <point x="216" y="111"/>
      <point x="297" y="111" type="curve" smooth="yes"/>
      <point x="562" y="111"/>
      <point x="709" y="201"/>
      <point x="709" y="359" type="curve" smooth="yes"/>
      <point x="709" y="511"/>
      <point x="562" y="614"/>
      <point x="325" y="614" type="curve" smooth="yes"/>
      <point x="216" y="614"/>
      <point x="206" y="614"/>
      <point x="206" y="634" type="curve"/>
      <point x="162" y="634" type="line"/>
      <point x="191" y="555" type="line"/>
      <point x="205" y="555" type="line"/>
      <point x="204" y="595"/>
      <point x="220" y="601"/>
      <point x="295" y="601" type="curve" smooth="yes"/>
      <point x="521" y="601"/>
      <point x="637" y="515"/>
      <point x="637" y="357" type="curve" smooth="yes"/>
      <point x="637" y="199"/>
      <point x="530" y="128"/>
      <point x="299" y="128" type="curve" smooth="yes"/>
      <point x="215" y="128"/>
      <point x="204" y="135"/>
      <point x="204" y="180" type="curve"/>
      <point x="185" y="180" type="line"/>
    </contour>
    <contour>
      <point x="208" y="0" type="line" name="_corner04"/>
      <point x="208" y="700" type="line" name="_corner05"/>
      <point x="138" y="700" type="line" name="_corner01"/>
      <point x="138" y="0" type="line" name="_corner03"/>
    </contour>
  </outline>
</glyph>
<glyph name="thorn" format="2">
  <advance width="745"/>
  <unicode hex="00FE"/>
  <anchor x="373" y="0" name="bottom"/>
  <anchor x="373" y="758" name="top"/>
  <outline>
    <contour>
      <point x="708" y="256" type="curve" smooth="yes"/>
      <point x="708" y="407"/>
      <point x="593" y="510"/>
      <point x="430" y="510" type="curve" smooth="yes"/>
      <point x="327" y="510"/>
      <point x="244" y="468"/>
      <point x="196" y="395" type="curve" smooth="yes"/>
      <point x="187" y="381"/>
      <point x="186" y="379"/>
      <point x="182" y="379" type="curve" smooth="yes"/>
      <point x="178" y="379"/>
      <point x="178" y="386"/>
      <point x="178" y="396" type="curve" smooth="yes"/>
      <point x="178" y="425"/>
      <point x="176" y="502"/>
      <point x="149" y="500" type="curve" smooth="yes"/>
      <point x="126" y="498" type="line"/>
      <point x="126" y="400"/>
      <point x="125" y="332"/>
      <point x="125" y="214" type="curve" smooth="yes"/>
      <point x="125" y="0" type="line"/>
      <point x="177" y="0" type="line"/>
      <point x="177" y="113" type="line" smooth="yes"/>
      <point x="177" y="117"/>
      <point x="177" y="121"/>
      <point x="180" y="121" type="curve" smooth="yes"/>
      <point x="182" y="121"/>
      <point x="184" y="118"/>
      <point x="192" y="103" type="curve" smooth="yes"/>
      <point x="232" y="32"/>
      <point x="316" y="-10"/>
      <point x="422" y="-10" type="curve" smooth="yes"/>
      <point x="590" y="-10"/>
      <point x="708" y="104"/>
    </contour>
    <contour>
      <point x="643" y="235" type="curve" smooth="yes"/>
      <point x="643" y="85"/>
      <point x="564" y="2"/>
      <point x="424" y="2" type="curve" smooth="yes"/>
      <point x="276" y="2"/>
      <point x="183" y="98"/>
      <point x="183" y="254" type="curve" smooth="yes"/>
      <point x="183" y="268" type="line" smooth="yes"/>
      <point x="183" y="393"/>
      <point x="276" y="476"/>
      <point x="416" y="476" type="curve" smooth="yes"/>
      <point x="555" y="476"/>
      <point x="643" y="383"/>
    </contour>
    <contour>
      <point x="125" y="49" type="line"/>
      <point x="125" y="14"/>
      <point x="126" y="-113"/>
      <point x="120" y="-196" type="curve" name="_corner00"/>
      <point x="184" y="-196" type="line" name="_corner01"/>
      <point x="182" y="-156"/>
      <point x="177" y="-48"/>
      <point x="177" y="0" type="curve" smooth="yes"/>
      <point x="177" y="49" type="line"/>
    </contour>
    <component base="_stem.long.top.indentright" xOffset="44" identifier="5EC46B2D"/>
  </outline>
</glyph>
<glyph name="idotless" format="2">
  <advance width="292"/>
  <unicode hex="0131"/>
  <anchor x="146" y="0" name="bottom"/>
  <anchor x="263" y="10" name="ogonek"/>
  <anchor x="131" y="500" name="top"/>
  <outline>
    <contour>
      <point x="116" y="0" type="curve" name="_corner01"/>
      <point x="177" y="0" type="line" name="_corner00"/>
      <point x="174" y="132"/>
      <point x="175" y="262"/>
      <point x="175" y="287" type="curve" smooth="yes"/>
      <point x="175" y="452"/>
      <point x="185" y="488"/>
      <point x="185" y="497" type="curve" smooth="yes"/>
      <point x="185" y="504"/>
      <point x="179" y="506"/>
      <point x="174" y="506" type="curve" smooth="yes"/>
      <point x="159" y="506"/>
      <point x="159" y="486"/>
      <point x="102" y="464" type="curve" smooth="yes"/>
      <point x="50" y="444"/>
      <point x="21" y="448"/>
      <point x="21" y="437" type="curve" smooth="yes"/>
      <point x="21" y="431"/>
      <point x="26" y="429"/>
      <point x="33" y="429" type="curve" smooth="yes"/>
      <point x="110" y="429"/>
      <point x="117" y="432"/>
      <point x="117" y="392" type="curve" smooth="yes"/>
      <point x="117" y="369"/>
      <point x="118" y="132"/>
    </contour>
  </outline>
</glyph>
<glyph name="OE" format="2">
  <advance width="963"/>
  <unicode hex="0152"/>
  <anchor x="393" y="0" name="bottom"/>
  <anchor x="393" y="350" name="center"/>
  <anchor x="691" y="10" name="ogonek"/>
  <anchor x="387" y="700" name="top"/>
  <anchor x="40" y="700" name="topleft"/>
  <anchor x="745" y="700" name="topright"/>
  <outline>
    <contour>
      <point x="396" y="-9" type="curve" smooth="yes"/>
      <point x="441" y="-9"/>
      <point x="483" y="0"/>
      <point x="534" y="0" type="curve"/>
      <point x="487" y="115" type="line"/>
      <point x="487" y="34"/>
      <point x="470" y="11"/>
      <point x="409" y="11" type="curve" smooth="yes"/>
      <point x="222" y="11"/>
      <point x="102" y="153"/>
      <point x="97" y="382" type="curve" smooth="yes"/>
      <point x="92" y="566"/>
      <point x="208" y="693"/>
      <point x="376" y="693" type="curve" smooth="yes"/>
      <point x="462" y="693"/>
      <point x="490" y="673"/>
      <point x="487" y="592" type="curve"/>
      <point x="541" y="700" type="line"/>
      <point x="480" y="700"/>
      <point x="436" y="709"/>
      <point x="389" y="709" type="curve" smooth="yes"/>
      <point x="182" y="709"/>
      <point x="23" y="546"/>
      <point x="27" y="340" type="curve" smooth="yes"/>
      <point x="30" y="136"/>
      <point x="182" y="-9"/>
    </contour>
    <contour>
      <point x="917" y="-6" type="curve" smooth="yes"/>
      <point x="924" y="-6"/>
      <point x="929" y="-3"/>
      <point x="928" y="5" type="curve" smooth="yes"/>
      <point x="926" y="19"/>
      <point x="921" y="40"/>
      <point x="921" y="80" type="curve" smooth="yes"/>
      <point x="921" y="144"/>
      <point x="926" y="175"/>
      <point x="928" y="208" type="curve" smooth="yes"/>
      <point x="929" y="217"/>
      <point x="924" y="220"/>
      <point x="917" y="220" type="curve" smooth="yes"/>
      <point x="910" y="220"/>
      <point x="906" y="216"/>
      <point x="906" y="208" type="curve" smooth="yes"/>
      <point x="906" y="33"/>
      <point x="890" y="13"/>
      <point x="614" y="13" type="curve" smooth="yes"/>
      <point x="556" y="13"/>
      <point x="554" y="14"/>
      <point x="552" y="87" type="curve"/>
      <point x="537" y="87" type="line"/>
      <point x="538" y="0" type="line"/>
      <point x="897" y="0"/>
      <point x="905" y="-6"/>
    </contour>
    <contour>
      <point x="485" y="0" type="line" name="_corner00"/>
      <point x="555" y="0" type="line"/>
      <point x="555" y="700" type="line" name="_corner01"/>
      <point x="485" y="700" type="line"/>
    </contour>
    <contour>
      <point x="760" y="238" type="curve" smooth="yes"/>
      <point x="766" y="238"/>
      <point x="771" y="240"/>
      <point x="771" y="249" type="curve" smooth="yes"/>
      <point x="771" y="271"/>
      <point x="760" y="297"/>
      <point x="760" y="357" type="curve" smooth="yes"/>
      <point x="760" y="421"/>
      <point x="771" y="441"/>
      <point x="771" y="461" type="curve" smooth="yes"/>
      <point x="771" y="470"/>
      <point x="766" y="472"/>
      <point x="760" y="472" type="curve" smooth="yes"/>
      <point x="753" y="472"/>
      <point x="749" y="468"/>
      <point x="749" y="460" type="curve" smooth="yes"/>
      <point x="749" y="382"/>
      <point x="730" y="369"/>
      <point x="619" y="365" type="curve" smooth="yes"/>
      <point x="554" y="363"/>
      <point x="550" y="364"/>
      <point x="550" y="438" type="curve"/>
      <point x="535" y="438" type="line"/>
      <point x="535" y="280" type="line"/>
      <point x="550" y="280" type="line"/>
      <point x="550" y="350"/>
      <point x="554" y="351"/>
      <point x="619" y="349" type="curve" smooth="yes"/>
      <point x="730" y="345"/>
      <point x="749" y="331"/>
      <point x="749" y="250" type="curve" smooth="yes"/>
      <point x="749" y="242"/>
      <point x="753" y="238"/>
    </contour>
    <contour>
      <point x="901" y="480" type="curve" smooth="yes"/>
      <point x="908" y="480"/>
      <point x="913" y="483"/>
      <point x="912" y="492" type="curve" smooth="yes"/>
      <point x="910" y="525"/>
      <point x="905" y="556"/>
      <point x="905" y="620" type="curve" smooth="yes"/>
      <point x="905" y="660"/>
      <point x="910" y="681"/>
      <point x="912" y="695" type="curve" smooth="yes"/>
      <point x="913" y="703"/>
      <point x="908" y="706"/>
      <point x="901" y="706" type="curve" smooth="yes"/>
      <point x="889" y="706"/>
      <point x="881" y="700"/>
      <point x="538" y="700" type="curve"/>
      <point x="537" y="613" type="line"/>
      <point x="552" y="613" type="line"/>
      <point x="554" y="686"/>
      <point x="556" y="687"/>
      <point x="614" y="687" type="curve" smooth="yes"/>
      <point x="874" y="687"/>
      <point x="890" y="667"/>
      <point x="890" y="492" type="curve" smooth="yes"/>
      <point x="890" y="484"/>
      <point x="894" y="480"/>
    </contour>
  </outline>
</glyph>
<glyph name="foursuperior" format="2">
  <advance width="420"/>
  <unicode hex="2074"/>
  <outline>
    <contour>
      <point x="237" y="370" type="line" name="_corner03"/>
      <point x="294" y="370" type="line" name="_corner02"/>
      <point x="293" y="446" type="line" smooth="yes"/>
      <point x="293" y="455"/>
      <point x="296" y="458"/>
      <point x="303" y="458" type="curve" smooth="yes"/>
      <point x="383" y="458" type="line" smooth="yes"/>
      <point x="390" y="458"/>
      <point x="393" y="461"/>
      <point x="393" y="468" type="curve" smooth="yes"/>
      <point x="393" y="496" type="line" smooth="yes"/>
      <point x="393" y="503"/>
      <point x="390" y="506"/>
      <point x="383" y="506" type="curve" smooth="yes"/>
      <point x="302" y="506" type="line" smooth="yes"/>
      <point x="295" y="506"/>
      <point x="292" y="509"/>
      <point x="292" y="518" type="curve" smooth="yes"/>
      <point x="291" y="717"/>
      <point x="291" y="747"/>
      <point x="291" y="765" type="curve" smooth="yes"/>
      <point x="291" y="810"/>
      <point x="296" y="826"/>
      <point x="296" y="835" type="curve" smooth="yes"/>
      <point x="296" y="842"/>
      <point x="290" y="844"/>
      <point x="285" y="844" type="curve" smooth="yes"/>
      <point x="281" y="844"/>
      <point x="277" y="842"/>
      <point x="275" y="840" type="curve" smooth="yes"/>
      <point x="270" y="835"/>
      <point x="265" y="828"/>
      <point x="258" y="822" type="curve" smooth="yes"/>
      <point x="239" y="805"/>
      <point x="237" y="792"/>
      <point x="237" y="779" type="curve" smooth="yes"/>
      <point x="237" y="759" type="line" smooth="yes"/>
      <point x="237" y="739"/>
      <point x="239" y="726"/>
      <point x="219" y="702" type="curve" smooth="yes"/>
      <point x="53" y="502" type="line" smooth="yes"/>
      <point x="31" y="476"/>
      <point x="39" y="458"/>
      <point x="64" y="458" type="curve" smooth="yes"/>
      <point x="227" y="458" type="line" smooth="yes"/>
      <point x="234" y="458"/>
      <point x="237" y="455"/>
      <point x="237" y="446" type="curve" smooth="yes"/>
    </contour>
    <contour>
      <point x="98" y="506" type="line" smooth="yes"/>
      <point x="87" y="506"/>
      <point x="86" y="510"/>
      <point x="95" y="521" type="curve" smooth="yes"/>
      <point x="229" y="686" type="line" smooth="yes"/>
      <point x="234" y="692"/>
      <point x="238" y="690"/>
      <point x="238" y="682" type="curve" smooth="yes"/>
      <point x="237" y="518" type="line" smooth="yes"/>
      <point x="237" y="509"/>
      <point x="234" y="506"/>
      <point x="227" y="506" type="curve" smooth="yes"/>
    </contour>
  </outline>
</glyph>
<glyph name="Mercury" format="2">
  <advance width="618"/>
  <unicode hex="263F"/>
  <guideline x="316" y="159" angle="0"/>
  <guideline x="316" y="500" angle="0"/>
  <outline>
    <contour>
      <point x="305" y="159" type="curve" smooth="yes"/>
      <point x="430" y="159"/>
      <point x="576" y="236"/>
      <point x="573" y="342" type="curve" smooth="yes"/>
      <point x="571" y="435"/>
      <point x="472" y="510"/>
      <point x="310" y="510" type="curve" smooth="yes"/>
      <point x="187" y="510"/>
      <point x="43" y="434"/>
      <point x="45" y="328" type="curve" smooth="yes"/>
      <point x="46" y="234"/>
      <point x="194" y="159"/>
    </contour>
    <contour>
      <point x="111" y="339" type="curve" smooth="yes"/>
      <point x="109" y="437"/>
      <point x="182" y="498"/>
      <point x="301" y="498" type="curve" smooth="yes"/>
      <point x="426" y="498"/>
      <point x="505" y="432"/>
      <point x="507" y="328" type="curve" smooth="yes"/>
      <point x="509" y="232"/>
      <point x="435" y="171"/>
      <point x="316" y="171" type="curve" smooth="yes"/>
      <point x="192" y="171"/>
      <point x="113" y="236"/>
    </contour>
    <contour>
      <point x="287" y="90" type="line"/>
      <point x="285" y="0" type="line" name="_corner02"/>
      <point x="347" y="0" type="line" name="_corner03"/>
      <point x="345" y="90" type="line"/>
    </contour>
    <contour>
      <point x="159" y="95" type="curve" smooth="yes"/>
      <point x="159" y="89"/>
      <point x="166" y="84"/>
      <point x="177" y="84" type="curve" smooth="yes"/>
      <point x="221" y="84"/>
      <point x="287" y="98"/>
      <point x="287" y="75" type="curve" smooth="yes"/>
      <point x="287" y="49" type="line"/>
      <point x="345" y="49" type="line"/>
      <point x="345" y="75" type="line" smooth="yes"/>
      <point x="345" y="98"/>
      <point x="411" y="84"/>
      <point x="455" y="84" type="curve" smooth="yes"/>
      <point x="466" y="84"/>
      <point x="473" y="89"/>
      <point x="473" y="95" type="curve" smooth="yes"/>
      <point x="473" y="100"/>
      <point x="468" y="102"/>
      <point x="457" y="102" type="curve" smooth="yes"/>
      <point x="404" y="102"/>
      <point x="344" y="88"/>
      <point x="344" y="124" type="curve" smooth="yes"/>
      <point x="344" y="147" type="line" smooth="yes"/>
      <point x="344" y="153"/>
      <point x="344" y="159"/>
      <point x="344" y="165" type="curve"/>
      <point x="283" y="160" type="line"/>
      <point x="287" y="159"/>
      <point x="288" y="153"/>
      <point x="288" y="147" type="curve" smooth="yes"/>
      <point x="288" y="124" type="line" smooth="yes"/>
      <point x="288" y="88"/>
      <point x="228" y="102"/>
      <point x="175" y="102" type="curve" smooth="yes"/>
      <point x="164" y="102"/>
      <point x="159" y="100"/>
    </contour>
    <contour>
      <point x="106" y="700" type="curve" name="_corner00"/>
      <point x="65" y="700" type="line" smooth="yes"/>
      <point x="45" y="700"/>
      <point x="39" y="693"/>
      <point x="40" y="672" type="curve" smooth="yes"/>
      <point x="41" y="577"/>
      <point x="158" y="503"/>
      <point x="305" y="503" type="curve" smooth="yes"/>
      <point x="483" y="503"/>
      <point x="581" y="569"/>
      <point x="578" y="686" type="curve" smooth="yes"/>
      <point x="578" y="696"/>
      <point x="569" y="700"/>
      <point x="548" y="700" type="curve" smooth="yes"/>
      <point x="510" y="700" type="line" name="_corner01"/>
      <point x="524" y="586"/>
      <point x="449" y="515"/>
      <point x="316" y="515" type="curve" smooth="yes"/>
      <point x="198" y="515"/>
      <point x="106" y="596"/>
    </contour>
  </outline>
</glyph>
<glyph name="Venus" format="2">
  <advance width="608"/>
  <unicode hex="2640"/>
  <outline>
    <contour>
      <point x="300" y="369" type="curve" smooth="yes"/>
      <point x="460" y="369"/>
      <point x="571" y="445"/>
      <point x="568" y="552" type="curve" smooth="yes"/>
      <point x="566" y="646"/>
      <point x="450" y="720"/>
      <point x="305" y="720" type="curve" smooth="yes"/>
      <point x="147" y="720"/>
      <point x="38" y="645"/>
      <point x="40" y="538" type="curve" smooth="yes"/>
      <point x="41" y="443"/>
      <point x="155" y="369"/>
    </contour>
    <contour>
      <point x="106" y="549" type="curve" smooth="yes"/>
      <point x="104" y="647"/>
      <point x="177" y="708"/>
      <point x="296" y="708" type="curve" smooth="yes"/>
      <point x="421" y="708"/>
      <point x="500" y="642"/>
      <point x="502" y="538" type="curve" smooth="yes"/>
      <point x="504" y="442"/>
      <point x="430" y="381"/>
      <point x="311" y="381" type="curve" smooth="yes"/>
      <point x="193" y="381"/>
      <point x="108" y="450"/>
    </contour>
    <contour>
      <point x="280" y="90" type="line"/>
      <point x="278" y="0" type="line" name="_corner00"/>
      <point x="340" y="0" type="line" name="_corner01"/>
      <point x="338" y="90" type="line"/>
    </contour>
    <contour>
      <point x="71" y="235" type="curve" smooth="yes"/>
      <point x="71" y="229"/>
      <point x="78" y="224"/>
      <point x="89" y="224" type="curve" smooth="yes"/>
      <point x="106" y="224"/>
      <point x="142" y="226"/>
      <point x="253" y="225" type="curve" smooth="yes"/>
      <point x="275" y="225"/>
      <point x="280" y="220"/>
      <point x="280" y="205" type="curve" smooth="yes"/>
      <point x="280" y="49" type="line"/>
      <point x="338" y="49" type="line"/>
      <point x="338" y="205" type="line" smooth="yes"/>
      <point x="338" y="220"/>
      <point x="342" y="225"/>
      <point x="360" y="225" type="curve" smooth="yes"/>
      <point x="473" y="226"/>
      <point x="510" y="224"/>
      <point x="529" y="224" type="curve" smooth="yes"/>
      <point x="540" y="224"/>
      <point x="547" y="229"/>
      <point x="547" y="235" type="curve" smooth="yes"/>
      <point x="547" y="240"/>
      <point x="542" y="245"/>
      <point x="531" y="245" type="curve" smooth="yes"/>
      <point x="511" y="245"/>
      <point x="474" y="243"/>
      <point x="361" y="243" type="curve" smooth="yes"/>
      <point x="340" y="243"/>
      <point x="337" y="244"/>
      <point x="337" y="256" type="curve" smooth="yes"/>
      <point x="337" y="357" type="line" smooth="yes"/>
      <point x="337" y="363"/>
      <point x="337" y="369"/>
      <point x="337" y="375" type="curve"/>
      <point x="276" y="370" type="line"/>
      <point x="280" y="369"/>
      <point x="281" y="363"/>
      <point x="281" y="357" type="curve" smooth="yes"/>
      <point x="281" y="256" type="line" smooth="yes"/>
      <point x="281" y="244"/>
      <point x="278" y="243"/>
      <point x="254" y="243" type="curve" smooth="yes"/>
      <point x="143" y="243"/>
      <point x="106" y="245"/>
      <point x="87" y="245" type="curve" smooth="yes"/>
      <point x="76" y="245"/>
      <point x="71" y="240"/>
    </contour>
  </outline>
</glyph>
<glyph name="Gemini" format="2">
  <advance width="738"/>
  <unicode hex="264A"/>
  <outline>
    <contour>
      <point x="234" y="150" type="line"/>
      <point x="234" y="550" type="line" name="_corner00"/>
      <point x="164" y="567" type="line"/>
      <point x="164" y="138" type="line" name="_corner01"/>
    </contour>
    <contour>
      <point x="504" y="550" type="line"/>
      <point x="504" y="150" type="line" name="_corner02"/>
      <point x="574" y="138" type="line"/>
      <point x="574" y="567" type="line" name="_corner03"/>
    </contour>
    <contour>
      <point x="76" y="700" type="curve" name="_corner05"/>
      <point x="35" y="700" type="line" smooth="yes"/>
      <point x="15" y="700"/>
      <point x="10" y="692"/>
      <point x="10" y="672" type="curve" smooth="yes"/>
      <point x="10" y="598"/>
      <point x="136" y="538"/>
      <point x="365" y="538" type="curve" smooth="yes"/>
      <point x="598" y="538"/>
      <point x="728" y="604"/>
      <point x="728" y="686" type="curve" smooth="yes"/>
      <point x="728" y="696"/>
      <point x="719" y="700"/>
      <point x="698" y="700" type="curve" smooth="yes"/>
      <point x="660" y="700" type="line" name="_corner04"/>
      <point x="660" y="603"/>
      <point x="583" y="550"/>
      <point x="376" y="550" type="curve" smooth="yes"/>
      <point x="159" y="550"/>
      <point x="76" y="603"/>
    </contour>
    <contour>
      <point x="662" y="0" type="curve" name="_corner07"/>
      <point x="703" y="0" type="line" smooth="yes"/>
      <point x="723" y="0"/>
      <point x="728" y="8"/>
      <point x="728" y="28" type="curve" smooth="yes"/>
      <point x="728" y="102"/>
      <point x="602" y="162"/>
      <point x="373" y="162" type="curve" smooth="yes"/>
      <point x="140" y="162"/>
      <point x="10" y="96"/>
      <point x="10" y="14" type="curve" smooth="yes"/>
      <point x="10" y="4"/>
      <point x="19" y="0"/>
      <point x="40" y="0" type="curve" smooth="yes"/>
      <point x="78" y="0" type="line" name="_corner06"/>
      <point x="78" y="97"/>
      <point x="155" y="150"/>
      <point x="362" y="150" type="curve" smooth="yes"/>
      <point x="579" y="150"/>
      <point x="662" y="97"/>
    </contour>
  </outline>
</glyph>
<glyph name="Virgo" format="2">
  <advance width="1295"/>
  <unicode hex="264D"/>
  <outline>
    <contour>
      <point x="1203" y="235" type="curve" smooth="yes"/>
      <point x="1203" y="92"/>
      <point x="1161" y="3"/>
      <point x="1094" y="3" type="curve" smooth="yes"/>
      <point x="1020" y="3"/>
      <point x="961" y="113"/>
      <point x="961" y="254" type="curve" smooth="yes"/>
      <point x="961" y="268" type="line" smooth="yes"/>
      <point x="961" y="383"/>
      <point x="1015" y="474"/>
      <point x="1083" y="474" type="curve" smooth="yes"/>
      <point x="1157" y="474"/>
      <point x="1203" y="382"/>
    </contour>
    <contour>
      <point x="336" y="535" type="curve" smooth="yes"/>
      <point x="336" y="0" type="line" name="_corner00"/>
      <point x="397" y="0" type="line" name="_corner01"/>
      <point x="397" y="467" type="line" smooth="yes"/>
      <point x="397" y="600"/>
      <point x="441" y="674"/>
      <point x="521" y="674" type="curve" smooth="yes"/>
      <point x="582" y="674"/>
      <point x="616" y="635"/>
      <point x="616" y="565" type="curve" smooth="yes"/>
      <point x="616" y="0" type="line" name="_corner02"/>
      <point x="678" y="0" type="line" name="_corner03"/>
      <point x="678" y="467" type="line" smooth="yes"/>
      <point x="678" y="594"/>
      <point x="726" y="674"/>
      <point x="802" y="674" type="curve" smooth="yes"/>
      <point x="863" y="674"/>
      <point x="897" y="635"/>
      <point x="897" y="565" type="curve" smooth="yes"/>
      <point x="897" y="0" type="line" smooth="yes"/>
      <point x="897" y="-92"/>
      <point x="954" y="-127"/>
      <point x="1050" y="-145" type="curve" smooth="yes"/>
      <point x="1062" y="-147"/>
      <point x="1072" y="-148"/>
      <point x="1072" y="-141" type="curve" smooth="yes"/>
      <point x="1072" y="-136"/>
      <point x="1064" y="-133"/>
      <point x="1052" y="-131" type="curve" smooth="yes"/>
      <point x="990" y="-120"/>
      <point x="956" y="-90"/>
      <point x="956" y="0" type="curve" smooth="yes"/>
      <point x="956" y="75" type="line" smooth="yes"/>
      <point x="956" y="82"/>
      <point x="959" y="83"/>
      <point x="960" y="83" type="curve" smooth="yes"/>
      <point x="962" y="83"/>
      <point x="964" y="80"/>
      <point x="968" y="72" type="curve" smooth="yes"/>
      <point x="998" y="22"/>
      <point x="1046" y="-10"/>
      <point x="1092" y="-10" type="curve" smooth="yes"/>
      <point x="1191" y="-10"/>
      <point x="1268" y="111"/>
      <point x="1268" y="264" type="curve" smooth="yes"/>
      <point x="1268" y="402"/>
      <point x="1194" y="510"/>
      <point x="1100" y="510" type="curve" smooth="yes"/>
      <point x="1049" y="510"/>
      <point x="1010" y="476"/>
      <point x="984" y="421" type="curve" smooth="yes"/>
      <point x="978" y="408"/>
      <point x="974" y="398"/>
      <point x="968" y="398" type="curve" smooth="yes"/>
      <point x="962" y="398"/>
      <point x="958" y="408"/>
      <point x="958" y="422" type="curve" smooth="yes"/>
      <point x="958" y="580" type="line" smooth="yes"/>
      <point x="958" y="662"/>
      <point x="894" y="710"/>
      <point x="824" y="710" type="curve" smooth="yes"/>
      <point x="769" y="710"/>
      <point x="721" y="674"/>
      <point x="695" y="618" type="curve" smooth="yes"/>
      <point x="688" y="602"/>
      <point x="685" y="592"/>
      <point x="679" y="592" type="curve" smooth="yes"/>
      <point x="671" y="592"/>
      <point x="673" y="603"/>
      <point x="670" y="620" type="curve" smooth="yes"/>
      <point x="662" y="673"/>
      <point x="610" y="710"/>
      <point x="543" y="710" type="curve" smooth="yes"/>
      <point x="487" y="710"/>
      <point x="436" y="675"/>
      <point x="412" y="618" type="curve" smooth="yes"/>
      <point x="406" y="604"/>
      <point x="404" y="592"/>
      <point x="397" y="592" type="curve" smooth="yes"/>
      <point x="390" y="592"/>
      <point x="389" y="601"/>
      <point x="388" y="608" type="curve" smooth="yes"/>
      <point x="379" y="674"/>
      <point x="311" y="716"/>
      <point x="214" y="716" type="curve" smooth="yes"/>
      <point x="95" y="716"/>
      <point x="20" y="654"/>
      <point x="20" y="554" type="curve" smooth="yes"/>
      <point x="20" y="460"/>
      <point x="99" y="401"/>
      <point x="208" y="401" type="curve" smooth="yes"/>
      <point x="222" y="401"/>
      <point x="242" y="400"/>
      <point x="242" y="405" type="curve" smooth="yes"/>
      <point x="242" y="410"/>
      <point x="235" y="412"/>
      <point x="225" y="412" type="curve" smooth="yes"/>
      <point x="143" y="412"/>
      <point x="86" y="475"/>
      <point x="86" y="565" type="curve" smooth="yes"/>
      <point x="86" y="647"/>
      <point x="137" y="704"/>
      <point x="210" y="704" type="curve" smooth="yes"/>
      <point x="298" y="704"/>
      <point x="336" y="653"/>
    </contour>
  </outline>
</glyph>
<glyph name="Libra" format="2">
  <advance width="1039"/>
  <unicode hex="264E"/>
  <outline>
    <contour>
      <point x="471" y="184" type="curve" smooth="yes"/>
      <point x="478" y="181"/>
      <point x="488" y="180"/>
      <point x="491" y="185" type="curve" smooth="yes"/>
      <point x="494" y="191"/>
      <point x="491" y="193"/>
      <point x="482" y="197" type="curve" smooth="yes"/>
      <point x="304" y="286"/>
      <point x="245" y="351"/>
      <point x="245" y="457" type="curve" smooth="yes"/>
      <point x="245" y="597"/>
      <point x="354" y="696"/>
      <point x="509" y="696" type="curve" smooth="yes"/>
      <point x="685" y="696"/>
      <point x="795" y="598"/>
      <point x="795" y="441" type="curve" smooth="yes"/>
      <point x="795" y="317"/>
      <point x="677" y="230"/>
      <point x="557" y="197" type="curve" smooth="yes"/>
      <point x="549" y="195"/>
      <point x="545" y="191"/>
      <point x="548" y="185" type="curve" smooth="yes"/>
      <point x="551" y="180"/>
      <point x="561" y="181"/>
      <point x="568" y="184" type="curve" smooth="yes"/>
      <point x="581" y="190"/>
      <point x="607" y="190"/>
      <point x="627" y="190" type="curve" smooth="yes"/>
      <point x="918" y="190" type="line" name="_corner07"/>
      <point x="888" y="226" type="line" name="_corner06"/>
      <point x="666" y="226" type="line" smooth="yes"/>
      <point x="663" y="226"/>
      <point x="663" y="231"/>
      <point x="666" y="233" type="curve"/>
      <point x="800" y="295"/>
      <point x="866" y="370"/>
      <point x="866" y="461" type="curve" smooth="yes"/>
      <point x="866" y="600"/>
      <point x="715" y="710"/>
      <point x="522" y="710" type="curve" smooth="yes"/>
      <point x="318" y="710"/>
      <point x="175" y="599"/>
      <point x="175" y="441" type="curve" smooth="yes"/>
      <point x="175" y="359"/>
      <point x="243" y="290"/>
      <point x="380" y="233" type="curve"/>
      <point x="383" y="231"/>
      <point x="383" y="226"/>
      <point x="380" y="226" type="curve" smooth="yes"/>
      <point x="151" y="226" type="line" name="_corner04"/>
      <point x="121" y="190" type="line" name="_corner05"/>
      <point x="423" y="190" type="line" smooth="yes"/>
      <point x="451" y="190"/>
      <point x="458" y="190"/>
    </contour>
    <contour>
      <point x="101" y="31" type="line" name="_corner00"/>
      <point x="938" y="31" type="line" name="_corner01"/>
      <point x="908" y="67" type="line" name="_corner02"/>
      <point x="131" y="67" type="line" name="_corner03"/>
    </contour>
  </outline>
</glyph>
<glyph name="Scorpion" format="2">
  <advance width="1100"/>
  <unicode hex="264F"/>
  <outline>
    <contour>
      <point x="898" y="-145" type="curve" smooth="yes"/>
      <point x="993" y="-145"/>
      <point x="1060" y="-85"/>
      <point x="1060" y="-3" type="curve" smooth="yes"/>
      <point x="1060" y="70"/>
      <point x="1017" y="125"/>
      <point x="947" y="141" type="curve" smooth="yes"/>
      <point x="928" y="145"/>
      <point x="914" y="144"/>
      <point x="917" y="155" type="curve" smooth="yes"/>
      <point x="919" y="166"/>
      <point x="962" y="173"/>
      <point x="976" y="177" type="curve" smooth="yes"/>
      <point x="989" y="182"/>
      <point x="991" y="187"/>
      <point x="990" y="193" type="curve"/>
      <point x="987" y="200"/>
      <point x="977" y="203"/>
      <point x="967" y="200" type="curve" smooth="yes"/>
      <point x="956" y="197"/>
      <point x="893" y="163"/>
      <point x="839" y="146" type="curve" smooth="yes"/>
      <point x="826" y="141"/>
      <point x="827" y="134"/>
      <point x="839" y="130" type="curve" smooth="yes"/>
      <point x="876" y="118"/>
      <point x="902" y="100"/>
      <point x="923" y="58" type="curve" smooth="yes"/>
      <point x="930" y="44"/>
      <point x="944" y="45"/>
      <point x="949" y="50" type="curve" smooth="yes"/>
      <point x="955" y="55"/>
      <point x="956" y="61"/>
      <point x="945" y="73" type="curve" smooth="yes"/>
      <point x="920" y="101"/>
      <point x="908" y="115"/>
      <point x="913" y="125" type="curve" smooth="yes"/>
      <point x="916" y="133"/>
      <point x="922" y="131"/>
      <point x="938" y="125" type="curve" smooth="yes"/>
      <point x="976" y="111"/>
      <point x="1001" y="61"/>
      <point x="1001" y="-3" type="curve" smooth="yes"/>
      <point x="1001" y="-83"/>
      <point x="965" y="-131"/>
      <point x="910" y="-131" type="curve" smooth="yes"/>
      <point x="845" y="-131"/>
      <point x="811" y="-76"/>
      <point x="811" y="37" type="curve" smooth="yes"/>
      <point x="811" y="580" type="line" smooth="yes"/>
      <point x="811" y="662"/>
      <point x="764" y="710"/>
      <point x="697" y="710" type="curve" smooth="yes"/>
      <point x="639" y="710"/>
      <point x="597" y="674"/>
      <point x="574" y="618" type="curve" smooth="yes"/>
      <point x="571" y="610"/>
      <point x="570" y="607"/>
      <point x="568" y="607" type="curve" smooth="yes"/>
      <point x="567" y="607"/>
      <point x="565" y="608"/>
      <point x="563" y="620" type="curve" smooth="yes"/>
      <point x="555" y="672"/>
      <point x="513" y="710"/>
      <point x="456" y="710" type="curve" smooth="yes"/>
      <point x="400" y="710"/>
      <point x="353" y="667"/>
      <point x="333" y="618" type="curve" smooth="yes"/>
      <point x="326" y="602"/>
      <point x="325" y="597"/>
      <point x="325" y="597" type="curve"/>
      <point x="323" y="597"/>
      <point x="322" y="602"/>
      <point x="321" y="608" type="curve" smooth="yes"/>
      <point x="311" y="677"/>
      <point x="262" y="717"/>
      <point x="183" y="717" type="curve" smooth="yes"/>
      <point x="87" y="717"/>
      <point x="20" y="657"/>
      <point x="20" y="575" type="curve" smooth="yes"/>
      <point x="20" y="484"/>
      <point x="84" y="425"/>
      <point x="187" y="425" type="curve" smooth="yes"/>
      <point x="206" y="425"/>
      <point x="204" y="426"/>
      <point x="204" y="431" type="curve" smooth="yes"/>
      <point x="204" y="435"/>
      <point x="198" y="437"/>
      <point x="188" y="437" type="curve" smooth="yes"/>
      <point x="122" y="437"/>
      <point x="79" y="489"/>
      <point x="79" y="575" type="curve" smooth="yes"/>
      <point x="79" y="655"/>
      <point x="115" y="703"/>
      <point x="171" y="703" type="curve" smooth="yes"/>
      <point x="235" y="703"/>
      <point x="269" y="647"/>
      <point x="269" y="535" type="curve" smooth="yes"/>
      <point x="269" y="0" type="line" name="_corner00"/>
      <point x="330" y="0" type="line" name="_corner01"/>
      <point x="330" y="467" type="line" smooth="yes"/>
      <point x="330" y="594"/>
      <point x="366" y="674"/>
      <point x="434" y="674" type="curve" smooth="yes"/>
      <point x="478" y="674"/>
      <point x="509" y="638"/>
      <point x="509" y="565" type="curve" smooth="yes"/>
      <point x="509" y="0" type="line" name="_corner02"/>
      <point x="571" y="0" type="line" name="_corner03"/>
      <point x="571" y="467" type="line" smooth="yes"/>
      <point x="571" y="594"/>
      <point x="607" y="674"/>
      <point x="675" y="674" type="curve" smooth="yes"/>
      <point x="719" y="674"/>
      <point x="750" y="638"/>
      <point x="750" y="565" type="curve" smooth="yes"/>
      <point x="750" y="56" type="line" smooth="yes"/>
      <point x="750" y="-82"/>
      <point x="786" y="-145"/>
    </contour>
  </outline>
</glyph>
<glyph name="Sagittarius" format="2">
  <advance width="753"/>
  <unicode hex="2650"/>
  <outline>
    <contour>
      <point x="702" y="665" type="curve" smooth="yes"/>
      <point x="706" y="713"/>
      <point x="689" y="709"/>
      <point x="661" y="695" type="curve" smooth="yes"/>
      <point x="610" y="670"/>
      <point x="565" y="667"/>
      <point x="503" y="657" type="curve" smooth="yes"/>
      <point x="480" y="653"/>
      <point x="466" y="644"/>
      <point x="472" y="622" type="curve" smooth="yes"/>
      <point x="476" y="607"/>
      <point x="493" y="602"/>
      <point x="519" y="611" type="curve" smooth="yes"/>
      <point x="563" y="627"/>
      <point x="618" y="667"/>
      <point x="627" y="659" type="curve" smooth="yes"/>
      <point x="639" y="650"/>
      <point x="618" y="627"/>
      <point x="547" y="527" type="curve" smooth="yes"/>
      <point x="470" y="419" type="line" smooth="yes"/>
      <point x="462" y="408"/>
      <point x="462" y="408"/>
      <point x="451" y="416" type="curve" smooth="yes"/>
      <point x="288" y="533"/>
      <point x="115" y="573"/>
      <point x="64" y="506" type="curve" smooth="yes"/>
      <point x="51" y="488"/>
      <point x="52" y="481"/>
      <point x="69" y="469" type="curve" smooth="yes"/>
      <point x="81" y="461"/>
      <point x="299" y="288"/>
      <point x="336" y="258" type="curve" smooth="yes"/>
      <point x="344" y="252"/>
      <point x="341" y="243"/>
      <point x="336" y="235" type="curve" smooth="yes"/>
      <point x="244" y="106" type="line" smooth="yes"/>
      <point x="218" y="70"/>
      <point x="192" y="34"/>
      <point x="138" y="0" type="curve" name="_corner00"/>
      <point x="235" y="0" type="line" name="_corner01"/>
      <point x="235" y="32"/>
      <point x="249" y="61"/>
      <point x="284" y="110" type="curve" smooth="yes"/>
      <point x="361" y="218" type="line" smooth="yes"/>
      <point x="369" y="229"/>
      <point x="371" y="230"/>
      <point x="379" y="223" type="curve" smooth="yes"/>
      <point x="645" y="-1" type="line" smooth="yes"/>
      <point x="662" y="-16"/>
      <point x="677" y="-10"/>
      <point x="688" y="4" type="curve" smooth="yes"/>
      <point x="756" y="90"/>
      <point x="680" y="243"/>
      <point x="503" y="379" type="curve" smooth="yes"/>
      <point x="488" y="390"/>
      <point x="491" y="395"/>
      <point x="495" y="402" type="curve" smooth="yes"/>
      <point x="593" y="542" type="line" smooth="yes"/>
      <point x="645" y="616"/>
      <point x="663" y="639"/>
      <point x="673" y="636" type="curve"/>
      <point x="685" y="630"/>
      <point x="667" y="563"/>
      <point x="658" y="515" type="curve" smooth="yes"/>
      <point x="653" y="486"/>
      <point x="663" y="470"/>
      <point x="685" y="470" type="curve" smooth="yes"/>
      <point x="707" y="470"/>
      <point x="714" y="487"/>
      <point x="710" y="515" type="curve" smooth="yes"/>
      <point x="705" y="566"/>
      <point x="696" y="599"/>
    </contour>
    <contour>
      <point x="144" y="434" type="curve" smooth="yes"/>
      <point x="115" y="457"/>
      <point x="123" y="474"/>
      <point x="153" y="487" type="curve" smooth="yes"/>
      <point x="221" y="516"/>
      <point x="324" y="484"/>
      <point x="439" y="401" type="curve" smooth="yes"/>
      <point x="447" y="395"/>
      <point x="447" y="390"/>
      <point x="440" y="380" type="curve" smooth="yes"/>
      <point x="365" y="273" type="line" smooth="yes"/>
      <point x="357" y="262"/>
      <point x="356" y="261"/>
      <point x="347" y="268" type="curve" smooth="yes"/>
      <point x="291" y="315"/>
      <point x="218" y="375"/>
    </contour>
    <contour>
      <point x="389" y="256" type="curve" smooth="yes"/>
      <point x="465" y="363" type="line" smooth="yes"/>
      <point x="474" y="375"/>
      <point x="475" y="375"/>
      <point x="483" y="369" type="curve" smooth="yes"/>
      <point x="614" y="266"/>
      <point x="664" y="177"/>
      <point x="647" y="80" type="curve" smooth="yes"/>
      <point x="638" y="29"/>
      <point x="617" y="48"/>
      <point x="596" y="65" type="curve" smooth="yes"/>
      <point x="390" y="233" type="line" smooth="yes"/>
      <point x="381" y="240"/>
      <point x="383" y="247"/>
    </contour>
  </outline>
</glyph>
<glyph name="Pisces" format="2">
  <advance width="678"/>
  <unicode hex="2653"/>
  <outline>
    <contour>
      <point x="41" y="42" type="curve" name="_corner01"/>
      <point x="40" y="13" type="line" smooth="yes"/>
      <point x="39" y="-4"/>
      <point x="49" y="-9"/>
      <point x="71" y="-9" type="curve" smooth="yes"/>
      <point x="221" y="-9"/>
      <point x="311" y="70"/>
      <point x="338" y="226" type="curve" smooth="yes"/>
      <point x="339" y="232"/>
      <point x="339" y="232"/>
      <point x="340" y="226" type="curve" smooth="yes"/>
      <point x="370" y="69"/>
      <point x="462" y="-9"/>
      <point x="621" y="-9" type="curve" smooth="yes"/>
      <point x="635" y="-9"/>
      <point x="639" y="-2"/>
      <point x="638" y="18" type="curve" smooth="yes"/>
      <point x="637" y="43" type="line" name="_corner02"/>
      <point x="447" y="42"/>
      <point x="352" y="135"/>
      <point x="348" y="327" type="curve" smooth="yes"/>
      <point x="348" y="345"/>
      <point x="363" y="344"/>
      <point x="386" y="344" type="curve" smooth="yes"/>
      <point x="511" y="344"/>
      <point x="527" y="341"/>
      <point x="544" y="341" type="curve" smooth="yes"/>
      <point x="557" y="341"/>
      <point x="563" y="345"/>
      <point x="563" y="350" type="curve" smooth="yes"/>
      <point x="563" y="355"/>
      <point x="557" y="361"/>
      <point x="544" y="361" type="curve" smooth="yes"/>
      <point x="527" y="361"/>
      <point x="511" y="357"/>
      <point x="386" y="357" type="curve" smooth="yes"/>
      <point x="363" y="357"/>
      <point x="348" y="356"/>
      <point x="349" y="377" type="curve" smooth="yes"/>
      <point x="360" y="567"/>
      <point x="454" y="659"/>
      <point x="637" y="658" type="curve" name="_corner03"/>
      <point x="638" y="687" type="line" smooth="yes"/>
      <point x="639" y="704"/>
      <point x="629" y="709"/>
      <point x="607" y="709" type="curve" smooth="yes"/>
      <point x="457" y="709"/>
      <point x="367" y="630"/>
      <point x="340" y="474" type="curve" smooth="yes"/>
      <point x="339" y="468"/>
      <point x="339" y="468"/>
      <point x="338" y="474" type="curve" smooth="yes"/>
      <point x="308" y="631"/>
      <point x="216" y="709"/>
      <point x="57" y="709" type="curve" smooth="yes"/>
      <point x="43" y="709"/>
      <point x="39" y="702"/>
      <point x="40" y="682" type="curve" smooth="yes"/>
      <point x="41" y="657" type="line" name="_corner00"/>
      <point x="231" y="658"/>
      <point x="330" y="565"/>
      <point x="330" y="373" type="curve" smooth="yes"/>
      <point x="330" y="355"/>
      <point x="315" y="356"/>
      <point x="292" y="356" type="curve" smooth="yes"/>
      <point x="167" y="356"/>
      <point x="151" y="359"/>
      <point x="134" y="359" type="curve" smooth="yes"/>
      <point x="121" y="359"/>
      <point x="115" y="355"/>
      <point x="115" y="350" type="curve" smooth="yes"/>
      <point x="115" y="345"/>
      <point x="121" y="339"/>
      <point x="134" y="339" type="curve" smooth="yes"/>
      <point x="151" y="339"/>
      <point x="167" y="343"/>
      <point x="292" y="343" type="curve" smooth="yes"/>
      <point x="315" y="343"/>
      <point x="330" y="344"/>
      <point x="329" y="323" type="curve" smooth="yes"/>
      <point x="318" y="133"/>
      <point x="224" y="41"/>
    </contour>
  </outline>
</glyph>
<glyph name="f_i" format="2">
  <advance width="658"/>
  <unicode hex="FB01"/>
  <anchor x="165" y="0" name="bottom_1"/>
  <anchor x="494" y="0" name="bottom_2"/>
  <anchor x="329" y="0" name="caret_1"/>
  <anchor x="165" y="758" name="top_1"/>
  <anchor x="494" y="758" name="top_2"/>
  <outline>
    <component base="_stem.short" xOffset="61" identifier="F98BD811"/>
    <contour>
      <point x="137" y="90" type="line"/>
      <point x="135" y="0" type="line" name="_corner01"/>
      <point x="197" y="0" type="line" name="_corner00"/>
      <point x="195" y="90" type="line"/>
    </contour>
    <contour>
      <point x="137" y="347" type="line"/>
      <point x="195" y="347" type="line"/>
      <point x="195" y="444" type="line" smooth="yes"/>
      <point x="195" y="482"/>
      <point x="221" y="473"/>
      <point x="348" y="473" type="curve" smooth="yes"/>
      <point x="361" y="473"/>
      <point x="369" y="475"/>
      <point x="369" y="484" type="curve" smooth="yes"/>
      <point x="369" y="492"/>
      <point x="362" y="494"/>
      <point x="348" y="494" type="curve" smooth="yes"/>
      <point x="213" y="494"/>
      <point x="194" y="485"/>
      <point x="194" y="522" type="curve" smooth="yes"/>
      <point x="194" y="546"/>
      <point x="194" y="568"/>
      <point x="194" y="579" type="curve" smooth="yes"/>
      <point x="194" y="654"/>
      <point x="240" y="677"/>
      <point x="288" y="677" type="curve" smooth="yes"/>
      <point x="396" y="677"/>
      <point x="439" y="604"/>
      <point x="494" y="604" type="curve" smooth="yes"/>
      <point x="523" y="604"/>
      <point x="543" y="621"/>
      <point x="543" y="646" type="curve" smooth="yes"/>
      <point x="543" y="688"/>
      <point x="506" y="711"/>
      <point x="438" y="711" type="curve" smooth="yes"/>
      <point x="226" y="711"/>
      <point x="137" y="642"/>
      <point x="137" y="540" type="curve" smooth="yes"/>
      <point x="137" y="529" type="line" smooth="yes"/>
      <point x="137" y="504"/>
      <point x="128" y="499"/>
      <point x="102" y="496" type="curve" smooth="yes"/>
      <point x="74" y="493"/>
      <point x="47" y="496"/>
      <point x="47" y="482" type="curve" smooth="yes"/>
      <point x="47" y="474"/>
      <point x="54" y="474"/>
      <point x="70" y="474" type="curve" smooth="yes"/>
      <point x="102" y="474"/>
      <point x="137" y="483"/>
      <point x="137" y="447" type="curve" smooth="yes"/>
    </contour>
    <component base="idotless" xOffset="366" identifier="FAA1AF08"/>
  </outline>
</glyph>
<glyph name="f_f_i" format="2">
  <advance width="1051"/>
  <unicode hex="FB03"/>
  <anchor x="525.5" y="0" name="caret_1"/>
  <anchor x="700.667" y="0" name="caret_2"/>
  <outline>
    <contour>
      <point x="875" y="0" type="curve" name="_corner03"/>
      <point x="936" y="0" type="line" name="_corner02"/>
      <point x="933" y="132"/>
      <point x="934" y="262"/>
      <point x="934" y="287" type="curve" smooth="yes"/>
      <point x="934" y="452"/>
      <point x="944" y="488"/>
      <point x="944" y="497" type="curve" smooth="yes"/>
      <point x="944" y="504"/>
      <point x="938" y="506"/>
      <point x="933" y="506" type="curve" smooth="yes"/>
      <point x="911" y="506"/>
      <point x="889" y="448"/>
      <point x="741" y="448" type="curve" smooth="yes"/>
      <point x="605" y="448"/>
      <point x="587" y="443"/>
      <point x="587" y="480" type="curve" smooth="yes"/>
      <point x="587" y="579" type="line" smooth="yes"/>
      <point x="587" y="665"/>
      <point x="619" y="696"/>
      <point x="703" y="696" type="curve" smooth="yes"/>
      <point x="783" y="696"/>
      <point x="832" y="667"/>
      <point x="841" y="613" type="curve" smooth="yes"/>
      <point x="846" y="581"/>
      <point x="860" y="551"/>
      <point x="894" y="551" type="curve" smooth="yes"/>
      <point x="919" y="551"/>
      <point x="936" y="567"/>
      <point x="936" y="589" type="curve" smooth="yes"/>
      <point x="936" y="659"/>
      <point x="815" y="715"/>
      <point x="662" y="715" type="curve" smooth="yes"/>
      <point x="561" y="715"/>
      <point x="530" y="683"/>
      <point x="530" y="580" type="curve" smooth="yes"/>
      <point x="530" y="494" type="line" smooth="yes"/>
      <point x="530" y="456"/>
      <point x="524" y="453"/>
      <point x="398" y="453" type="curve" smooth="yes"/>
      <point x="213" y="453"/>
      <point x="194" y="444"/>
      <point x="194" y="491" type="curve" smooth="yes"/>
      <point x="194" y="589" type="line" smooth="yes"/>
      <point x="194" y="659"/>
      <point x="219" y="689"/>
      <point x="280" y="689" type="curve" smooth="yes"/>
      <point x="358" y="689"/>
      <point x="396" y="657"/>
      <point x="408" y="613" type="curve" smooth="yes"/>
      <point x="414" y="592"/>
      <point x="426" y="581"/>
      <point x="443" y="581" type="curve" smooth="yes"/>
      <point x="462" y="581"/>
      <point x="471" y="592"/>
      <point x="471" y="603" type="curve" smooth="yes"/>
      <point x="471" y="660"/>
      <point x="339" y="715"/>
      <point x="239" y="715" type="curve" smooth="yes"/>
      <point x="156" y="715"/>
      <point x="137" y="684"/>
      <point x="137" y="580" type="curve" smooth="yes"/>
      <point x="137" y="490" type="line" smooth="yes"/>
      <point x="137" y="465"/>
      <point x="128" y="460"/>
      <point x="102" y="457" type="curve" smooth="yes"/>
      <point x="74" y="454"/>
      <point x="47" y="454"/>
      <point x="47" y="443" type="curve" smooth="yes"/>
      <point x="47" y="438"/>
      <point x="54" y="435"/>
      <point x="70" y="435" type="curve" smooth="yes"/>
      <point x="102" y="435"/>
      <point x="137" y="444"/>
      <point x="137" y="408" type="curve" smooth="yes"/>
      <point x="137" y="347" type="line"/>
      <point x="195" y="347" type="line"/>
      <point x="195" y="393" type="line" smooth="yes"/>
      <point x="195" y="436"/>
      <point x="221" y="437"/>
      <point x="398" y="437" type="curve" smooth="yes"/>
      <point x="495" y="437"/>
      <point x="530" y="443"/>
      <point x="530" y="382" type="curve" smooth="yes"/>
      <point x="530" y="347" type="line"/>
      <point x="588" y="347" type="line"/>
      <point x="588" y="402" type="line" smooth="yes"/>
      <point x="588" y="439"/>
      <point x="614" y="429"/>
      <point x="742" y="429" type="curve" smooth="yes"/>
      <point x="857" y="429"/>
      <point x="876" y="425"/>
      <point x="876" y="382" type="curve" smooth="yes"/>
      <point x="876" y="369"/>
      <point x="877" y="132"/>
    </contour>
    <contour>
      <point x="528" y="0" type="line" name="_corner00"/>
      <point x="590" y="0" type="line" name="_corner01"/>
      <point x="588" y="90" type="line"/>
      <point x="530" y="90" type="line"/>
    </contour>
    <contour>
      <point x="135" y="0" type="line" name="_corner04"/>
      <point x="197" y="0" type="line" name="_corner05"/>
      <point x="195" y="90" type="line"/>
      <point x="137" y="90" type="line"/>
    </contour>
    <component base="_stem.short" xOffset="454" identifier="86F23647"/>
    <component base="_stem.short" xOffset="61" identifier="F7FFDBE6"/>
  </outline>
</glyph>
<glyph name="f_f_l" format="2">
  <advance width="1129"/>
  <unicode hex="FB04"/>
  <outline>
    <component base="_stem.short" xOffset="61" identifier="F8142023"/>
    <contour>
      <point x="137" y="90" type="line"/>
      <point x="135" y="0" type="line" name="_corner00"/>
      <point x="197" y="0" type="line" name="_corner01"/>
      <point x="195" y="90" type="line"/>
    </contour>
    <contour>
      <point x="137" y="347" type="line"/>
      <point x="195" y="347" type="line"/>
      <point x="195" y="432" type="line" smooth="yes"/>
      <point x="195" y="475"/>
      <point x="223" y="476"/>
      <point x="398" y="476" type="curve" smooth="yes"/>
      <point x="495" y="476"/>
      <point x="530" y="482"/>
      <point x="530" y="421" type="curve" smooth="yes"/>
      <point x="530" y="347" type="line"/>
      <point x="588" y="347" type="line"/>
      <point x="588" y="444" type="line" smooth="yes"/>
      <point x="588" y="482"/>
      <point x="614" y="473"/>
      <point x="741" y="473" type="curve" smooth="yes"/>
      <point x="754" y="473"/>
      <point x="762" y="477"/>
      <point x="762" y="484" type="curve" smooth="yes"/>
      <point x="762" y="489"/>
      <point x="755" y="494"/>
      <point x="741" y="494" type="curve" smooth="yes"/>
      <point x="606" y="494"/>
      <point x="587" y="485"/>
      <point x="587" y="522" type="curve" smooth="yes"/>
      <point x="587" y="589" type="line" smooth="yes"/>
      <point x="587" y="659"/>
      <point x="612" y="689"/>
      <point x="673" y="689" type="curve" smooth="yes"/>
      <point x="751" y="689"/>
      <point x="789" y="657"/>
      <point x="801" y="613" type="curve" smooth="yes"/>
      <point x="807" y="591"/>
      <point x="808" y="571"/>
      <point x="829" y="571" type="curve" smooth="yes"/>
      <point x="846" y="571"/>
      <point x="853" y="592"/>
      <point x="858" y="603" type="curve" smooth="yes"/>
      <point x="869" y="629"/>
      <point x="882" y="640"/>
      <point x="899" y="640" type="curve" smooth="yes"/>
      <point x="912" y="640"/>
      <point x="919" y="626"/>
      <point x="919" y="597" type="curve" smooth="yes"/>
      <point x="919" y="550"/>
      <point x="919" y="502"/>
      <point x="919" y="455" type="curve" smooth="yes"/>
      <point x="919" y="339" type="line"/>
      <point x="977" y="339" type="line"/>
      <point x="977" y="455" type="line" smooth="yes"/>
      <point x="977" y="656"/>
      <point x="987" y="693"/>
      <point x="987" y="702" type="curve" smooth="yes"/>
      <point x="987" y="709"/>
      <point x="981" y="711"/>
      <point x="976" y="711" type="curve" smooth="yes"/>
      <point x="959" y="711"/>
      <point x="899" y="651"/>
      <point x="846" y="651" type="curve" smooth="yes"/>
      <point x="806" y="651"/>
      <point x="733" y="715"/>
      <point x="632" y="715" type="curve" smooth="yes"/>
      <point x="549" y="715"/>
      <point x="530" y="684"/>
      <point x="530" y="580" type="curve" smooth="yes"/>
      <point x="530" y="533" type="line" smooth="yes"/>
      <point x="530" y="495"/>
      <point x="524" y="492"/>
      <point x="398" y="492" type="curve" smooth="yes"/>
      <point x="213" y="492"/>
      <point x="194" y="483"/>
      <point x="194" y="530" type="curve" smooth="yes"/>
      <point x="194" y="589" type="line" smooth="yes"/>
      <point x="194" y="659"/>
      <point x="219" y="689"/>
      <point x="280" y="689" type="curve" smooth="yes"/>
      <point x="358" y="689"/>
      <point x="396" y="657"/>
      <point x="408" y="613" type="curve" smooth="yes"/>
      <point x="414" y="592"/>
      <point x="426" y="581"/>
      <point x="443" y="581" type="curve" smooth="yes"/>
      <point x="462" y="581"/>
      <point x="471" y="592"/>
      <point x="471" y="603" type="curve" smooth="yes"/>
      <point x="471" y="660"/>
      <point x="339" y="715"/>
      <point x="239" y="715" type="curve" smooth="yes"/>
      <point x="156" y="715"/>
      <point x="137" y="684"/>
      <point x="137" y="580" type="curve" smooth="yes"/>
      <point x="137" y="529" type="line" smooth="yes"/>
      <point x="137" y="504"/>
      <point x="128" y="499"/>
      <point x="102" y="496" type="curve" smooth="yes"/>
      <point x="74" y="493"/>
      <point x="47" y="493"/>
      <point x="47" y="482" type="curve" smooth="yes"/>
      <point x="47" y="477"/>
      <point x="54" y="474"/>
      <point x="70" y="474" type="curve" smooth="yes"/>
      <point x="102" y="474"/>
      <point x="137" y="483"/>
      <point x="137" y="447" type="curve" smooth="yes"/>
    </contour>
    <contour>
      <point x="530" y="90" type="line"/>
      <point x="528" y="0" type="line" name="_corner02"/>
      <point x="590" y="0" type="line" name="_corner03"/>
      <point x="588" y="90" type="line"/>
    </contour>
    <component base="_stem.short" xOffset="454" identifier="F370AE01"/>
    <component base="_stem.short" xOffset="843" identifier="4D6C44D9"/>
    <component base="_stem.foot" xOffset="853" identifier="C035A650"/>
  </outline>
</glyph>
<glyph name="A.ss01" format="2">
  <advance width="961"/>
  <guideline x="317" y="307" angle="64.3009"/>
  <guideline x="283" y="307" angle="60.9204"/>
  <anchor x="484" y="0" name="bottom"/>
  <anchor x="887" y="10" name="ogonek"/>
  <anchor x="460" y="700" name="top"/>
  <outline>
    <contour>
      <point x="774" y="0" type="curve" name="_corner03"/>
      <point x="853" y="0" type="line" name="_corner00"/>
      <point x="735" y="232"/>
      <point x="616" y="466"/>
      <point x="498" y="700" type="curve"/>
      <point x="495" y="704"/>
      <point x="493" y="706"/>
      <point x="482" y="706" type="curve" smooth="yes"/>
      <point x="474" y="706"/>
      <point x="471" y="703"/>
      <point x="467" y="697" type="curve" smooth="yes"/>
      <point x="464" y="691"/>
      <point x="447" y="656"/>
      <point x="444" y="652" type="curve"/>
      <point x="364" y="491"/>
      <point x="222" y="205"/>
      <point x="108" y="0" type="curve" name="_corner01"/>
      <point x="173" y="0" type="line" name="_corner02"/>
      <point x="218" y="97"/>
      <point x="257" y="194"/>
      <point x="304" y="289" type="curve" smooth="yes"/>
      <point x="329" y="341"/>
      <point x="347" y="341"/>
      <point x="439" y="341" type="curve" smooth="yes"/>
      <point x="500" y="341" type="line" smooth="yes"/>
      <point x="597" y="341"/>
      <point x="607" y="341"/>
      <point x="633" y="289" type="curve" smooth="yes"/>
      <point x="682" y="192"/>
      <point x="728" y="97"/>
    </contour>
    <contour>
      <point x="356" y="410" type="curve" smooth="yes"/>
      <point x="382" y="465"/>
      <point x="417" y="544"/>
      <point x="442" y="596" type="curve" smooth="yes"/>
      <point x="452" y="617"/>
      <point x="455" y="626"/>
      <point x="461" y="626" type="curve" smooth="yes"/>
      <point x="466" y="626"/>
      <point x="469" y="620"/>
      <point x="479" y="600" type="curve" smooth="yes"/>
      <point x="506" y="547"/>
      <point x="546" y="468"/>
      <point x="574" y="410" type="curve" smooth="yes"/>
      <point x="599" y="359"/>
      <point x="587" y="357"/>
      <point x="500" y="357" type="curve" smooth="yes"/>
      <point x="439" y="357" type="line" smooth="yes"/>
      <point x="353" y="357"/>
      <point x="331" y="359"/>
    </contour>
  </outline>
</glyph>
<glyph name="_ariesright" format="2">
  <advance width="600"/>
  <outline>
    <contour>
      <point x="190" y="-8" type="line"/>
      <point x="190" y="68" type="line"/>
      <point x="188" y="68"/>
      <point x="187" y="74"/>
      <point x="185" y="78" type="curve" smooth="yes"/>
      <point x="61" y="402" type="line" smooth="yes"/>
      <point x="-28" y="633"/>
      <point x="-68" y="710"/>
      <point x="-149" y="710" type="curve" smooth="yes"/>
      <point x="-225" y="710"/>
      <point x="-267" y="636"/>
      <point x="-262" y="533" type="curve" smooth="yes"/>
      <point x="-261" y="501"/>
      <point x="-257" y="492"/>
      <point x="-251" y="492" type="curve" smooth="yes"/>
      <point x="-246" y="492"/>
      <point x="-244" y="499"/>
      <point x="-246" y="521" type="curve" smooth="yes"/>
      <point x="-251" y="602"/>
      <point x="-222" y="661"/>
      <point x="-166" y="661" type="curve" smooth="yes"/>
      <point x="-108" y="661"/>
      <point x="-70" y="589"/>
      <point x="9" y="373" type="curve" smooth="yes"/>
      <point x="33" y="307"/>
      <point x="103" y="150"/>
      <point x="143" y="-8" type="curve" name="_corner00"/>
    </contour>
  </outline>
</glyph>
<glyph name="_d.bowl" format="2">
  <advance width="355"/>
  <outline>
    <contour>
      <point x="-291" y="236" type="curve" smooth="yes"/>
      <point x="-291" y="93"/>
      <point x="-176" y="-10"/>
      <point x="-13" y="-10" type="curve" smooth="yes"/>
      <point x="90" y="-10"/>
      <point x="176" y="32"/>
      <point x="223" y="105" type="curve" smooth="yes"/>
      <point x="233" y="119"/>
      <point x="233" y="122"/>
      <point x="236" y="122" type="curve" smooth="yes"/>
      <point x="240" y="122"/>
      <point x="239" y="102"/>
      <point x="239" y="94" type="curve" smooth="yes"/>
      <point x="239" y="35"/>
      <point x="227" y="-2"/>
      <point x="259" y="0" type="curve" smooth="yes"/>
      <point x="295" y="2" type="line" name="_corner00"/>
      <point x="295" y="100"/>
      <point x="292" y="168"/>
      <point x="292" y="286" type="curve" smooth="yes"/>
      <point x="292" y="500" type="line"/>
      <point x="240" y="500" type="line"/>
      <point x="240" y="387" type="line" smooth="yes"/>
      <point x="240" y="383"/>
      <point x="240" y="379"/>
      <point x="237" y="379" type="curve" smooth="yes"/>
      <point x="235" y="379"/>
      <point x="233" y="382"/>
      <point x="225" y="397" type="curve" smooth="yes"/>
      <point x="185" y="468"/>
      <point x="101" y="510"/>
      <point x="-5" y="510" type="curve" smooth="yes"/>
      <point x="-173" y="510"/>
      <point x="-291" y="396"/>
    </contour>
    <contour>
      <point x="-226" y="265" type="curve" smooth="yes"/>
      <point x="-226" y="415"/>
      <point x="-147" y="498"/>
      <point x="-7" y="498" type="curve" smooth="yes"/>
      <point x="141" y="498"/>
      <point x="234" y="402"/>
      <point x="234" y="246" type="curve" smooth="yes"/>
      <point x="234" y="232" type="line" smooth="yes"/>
      <point x="234" y="110"/>
      <point x="138" y="26"/>
      <point x="1" y="26" type="curve" smooth="yes"/>
      <point x="-138" y="26"/>
      <point x="-226" y="117"/>
    </contour>
  </outline>
</glyph>
<glyph name="_halfcircle" format="2">
  <advance width="600"/>
  <outline>
    <contour>
      <point x="-7" y="700" type="curve" name="_corner01"/>
      <point x="-48" y="700" type="line" smooth="yes"/>
      <point x="-68" y="700"/>
      <point x="-73" y="692"/>
      <point x="-73" y="672" type="curve" smooth="yes"/>
      <point x="-73" y="571"/>
      <point x="44" y="498"/>
      <point x="212" y="498" type="curve" smooth="yes"/>
      <point x="400" y="498"/>
      <point x="505" y="566"/>
      <point x="505" y="686" type="curve" smooth="yes"/>
      <point x="505" y="696"/>
      <point x="496" y="700"/>
      <point x="475" y="700" type="curve" smooth="yes"/>
      <point x="437" y="700" type="line" name="_corner00"/>
      <point x="437" y="567"/>
      <point x="372" y="510"/>
      <point x="223" y="510" type="curve" smooth="yes"/>
      <point x="69" y="510"/>
      <point x="-7" y="572"/>
    </contour>
  </outline>
</glyph>
<glyph name="_n.side" format="2">
  <advance width="600"/>
  <outline>
    <contour>
      <point x="563" y="0" type="line" name="_corner01"/>
      <point x="622" y="0" type="line" name="_corner00"/>
      <point x="622" y="122"/>
      <point x="622" y="245"/>
      <point x="622" y="290" type="curve" smooth="yes"/>
      <point x="622" y="442"/>
      <point x="551" y="510"/>
      <point x="389" y="510" type="curve" smooth="yes"/>
      <point x="264" y="510"/>
      <point x="184" y="463"/>
      <point x="128" y="359" type="curve" smooth="yes"/>
      <point x="124" y="351"/>
      <point x="122" y="348"/>
      <point x="121" y="348" type="curve" smooth="yes"/>
      <point x="91" y="348" type="line"/>
      <point x="91" y="227" type="line"/>
      <point x="124" y="227" type="line"/>
      <point x="124" y="380"/>
      <point x="218" y="474"/>
      <point x="368" y="474" type="curve" smooth="yes"/>
      <point x="509" y="474"/>
      <point x="563" y="420"/>
      <point x="563" y="275" type="curve" smooth="yes"/>
    </contour>
  </outline>
</glyph>
<glyph name="_piscesside" format="2">
  <advance width="502"/>
  <outline>
    <contour>
      <point x="125" y="-9" type="curve" smooth="yes"/>
      <point x="311" y="-9"/>
      <point x="402" y="111"/>
      <point x="402" y="349" type="curve" smooth="yes"/>
      <point x="402" y="589"/>
      <point x="307" y="709"/>
      <point x="111" y="709" type="curve" smooth="yes"/>
      <point x="97" y="709"/>
      <point x="94" y="702"/>
      <point x="94" y="682" type="curve" smooth="yes"/>
      <point x="95" y="657" type="line" name="_corner00"/>
      <point x="289" y="658"/>
      <point x="384" y="561"/>
      <point x="384" y="360" type="curve" smooth="yes"/>
      <point x="384" y="145"/>
      <point x="289" y="41"/>
      <point x="95" y="42" type="curve" name="_corner01"/>
      <point x="94" y="13" type="line" smooth="yes"/>
      <point x="93" y="-4"/>
      <point x="103" y="-9"/>
    </contour>
    <contour>
      <point x="383" y="320" type="curve"/>
      <point x="398" y="320" type="line"/>
      <point x="398" y="376" type="line"/>
      <point x="384" y="376" type="line"/>
      <point x="384" y="355"/>
      <point x="370" y="356"/>
      <point x="346" y="356" type="curve" smooth="yes"/>
      <point x="221" y="356"/>
      <point x="205" y="359"/>
      <point x="188" y="359" type="curve" smooth="yes"/>
      <point x="175" y="359"/>
      <point x="169" y="355"/>
      <point x="169" y="350" type="curve" smooth="yes"/>
      <point x="169" y="345"/>
      <point x="175" y="339"/>
      <point x="188" y="339" type="curve" smooth="yes"/>
      <point x="205" y="339"/>
      <point x="221" y="343"/>
      <point x="346" y="343" type="curve" smooth="yes"/>
      <point x="369" y="343"/>
      <point x="384" y="344"/>
    </contour>
  </outline>
</glyph>
<glyph name="_stem.foot" format="2">
  <advance width="208"/>
  <guideline x="30" y="0" angle="270"/>
  <outline>
    <contour>
      <point x="66" y="90" type="line"/>
      <point x="64" y="0" type="line" name="_corner00"/>
      <point x="126" y="0" type="line" name="_corner01"/>
      <point x="124" y="90" type="line"/>
    </contour>
  </outline>
</glyph>
<glyph name="f_f_k" format="2">
  <advance width="1568"/>
  <anchor x="262" y="0" name="bottom_1"/>
  <anchor x="785" y="0" name="bottom_2"/>
  <anchor x="1308" y="0" name="bottom_3"/>
  <anchor x="523" y="0" name="caret_1"/>
  <anchor x="1046" y="0" name="caret_2"/>
  <anchor x="262" y="758" name="top_1"/>
  <anchor x="785" y="758" name="top_2"/>
  <anchor x="1308" y="758" name="top_3"/>
  <outline>
    <contour>
      <point x="1409" y="0" type="curve" name="_corner00"/>
      <point x="1483" y="0" type="line" name="_corner01"/>
      <point x="1387" y="102"/>
      <point x="1291" y="206"/>
      <point x="1193" y="310" type="curve" smooth="yes"/>
      <point x="1186" y="317"/>
      <point x="1187" y="325"/>
      <point x="1193" y="329" type="curve" smooth="yes"/>
      <point x="1281" y="387"/>
      <point x="1367" y="444"/>
      <point x="1473" y="500" type="curve" name="_corner02"/>
      <point x="1370" y="500" type="line" name="_corner03"/>
      <point x="1254" y="406"/>
      <point x="1120" y="315"/>
      <point x="986" y="223" type="curve" smooth="yes"/>
      <point x="971" y="213"/>
      <point x="969" y="214"/>
      <point x="969" y="229" type="curve" smooth="yes"/>
      <point x="970" y="447" type="line" smooth="yes"/>
      <point x="971" y="645"/>
      <point x="974" y="690"/>
      <point x="974" y="702" type="curve" smooth="yes"/>
      <point x="974" y="709"/>
      <point x="968" y="711"/>
      <point x="963" y="711" type="curve" smooth="yes"/>
      <point x="941" y="711"/>
      <point x="899" y="651"/>
      <point x="845" y="651" type="curve" smooth="yes"/>
      <point x="806" y="651"/>
      <point x="733" y="715"/>
      <point x="632" y="715" type="curve" smooth="yes"/>
      <point x="549" y="715"/>
      <point x="530" y="684"/>
      <point x="530" y="580" type="curve" smooth="yes"/>
      <point x="530" y="533" type="line" smooth="yes"/>
      <point x="530" y="495"/>
      <point x="524" y="492"/>
      <point x="398" y="492" type="curve" smooth="yes"/>
      <point x="213" y="492"/>
      <point x="194" y="483"/>
      <point x="194" y="530" type="curve" smooth="yes"/>
      <point x="194" y="589" type="line" smooth="yes"/>
      <point x="194" y="659"/>
      <point x="219" y="689"/>
      <point x="280" y="689" type="curve" smooth="yes"/>
      <point x="358" y="689"/>
      <point x="396" y="657"/>
      <point x="408" y="613" type="curve" smooth="yes"/>
      <point x="414" y="592"/>
      <point x="426" y="581"/>
      <point x="443" y="581" type="curve" smooth="yes"/>
      <point x="462" y="581"/>
      <point x="471" y="592"/>
      <point x="471" y="603" type="curve" smooth="yes"/>
      <point x="471" y="660"/>
      <point x="339" y="715"/>
      <point x="239" y="715" type="curve" smooth="yes"/>
      <point x="156" y="715"/>
      <point x="137" y="684"/>
      <point x="137" y="580" type="curve" smooth="yes"/>
      <point x="137" y="529" type="line" smooth="yes"/>
      <point x="137" y="504"/>
      <point x="128" y="499"/>
      <point x="102" y="496" type="curve" smooth="yes"/>
      <point x="74" y="493"/>
      <point x="47" y="493"/>
      <point x="47" y="482" type="curve" smooth="yes"/>
      <point x="47" y="477"/>
      <point x="54" y="474"/>
      <point x="70" y="474" type="curve" smooth="yes"/>
      <point x="102" y="474"/>
      <point x="137" y="483"/>
      <point x="137" y="447" type="curve" smooth="yes"/>
      <point x="137" y="347" type="line"/>
      <point x="195" y="347" type="line"/>
      <point x="195" y="432" type="line" smooth="yes"/>
      <point x="195" y="475"/>
      <point x="223" y="476"/>
      <point x="398" y="476" type="curve" smooth="yes"/>
      <point x="495" y="476"/>
      <point x="530" y="482"/>
      <point x="530" y="421" type="curve" smooth="yes"/>
      <point x="530" y="347" type="line"/>
      <point x="588" y="347" type="line"/>
      <point x="588" y="444" type="line" smooth="yes"/>
      <point x="588" y="482"/>
      <point x="614" y="473"/>
      <point x="741" y="473" type="curve" smooth="yes"/>
      <point x="754" y="473"/>
      <point x="762" y="477"/>
      <point x="762" y="484" type="curve" smooth="yes"/>
      <point x="762" y="489"/>
      <point x="755" y="494"/>
      <point x="741" y="494" type="curve" smooth="yes"/>
      <point x="606" y="494"/>
      <point x="587" y="485"/>
      <point x="587" y="522" type="curve" smooth="yes"/>
      <point x="587" y="589" type="line" smooth="yes"/>
      <point x="587" y="659"/>
      <point x="612" y="689"/>
      <point x="673" y="689" type="curve" smooth="yes"/>
      <point x="751" y="689"/>
      <point x="789" y="657"/>
      <point x="801" y="613" type="curve" smooth="yes"/>
      <point x="807" y="591"/>
      <point x="808" y="571"/>
      <point x="828" y="571" type="curve" smooth="yes"/>
      <point x="846" y="571"/>
      <point x="849" y="582"/>
      <point x="858" y="603" type="curve" smooth="yes"/>
      <point x="869" y="629"/>
      <point x="880" y="640"/>
      <point x="895" y="640" type="curve" smooth="yes"/>
      <point x="907" y="640"/>
      <point x="914" y="626"/>
      <point x="914" y="597" type="curve" smooth="yes"/>
      <point x="914" y="80" type="line"/>
      <point x="972" y="80" type="line"/>
      <point x="972" y="139" type="line" smooth="yes"/>
      <point x="972" y="180"/>
      <point x="971" y="193"/>
      <point x="995" y="208" type="curve" smooth="yes"/>
      <point x="1117" y="286" type="line" smooth="yes"/>
      <point x="1133" y="297"/>
      <point x="1133" y="297"/>
      <point x="1151" y="278" type="curve" smooth="yes"/>
      <point x="1236" y="186"/>
      <point x="1322" y="94"/>
    </contour>
    <contour>
      <point x="135" y="0" type="line" name="_corner04"/>
      <point x="197" y="0" type="line" name="_corner05"/>
      <point x="195" y="90" type="line"/>
      <point x="137" y="90" type="line"/>
    </contour>
    <component base="_stem.short" xOffset="61" identifier="542BD7BD"/>
    <contour>
      <point x="528" y="0" type="line" name="_corner07"/>
      <point x="590" y="0" type="line" name="_corner06"/>
      <point x="588" y="90" type="line"/>
      <point x="530" y="90" type="line"/>
    </contour>
    <component base="_stem.short" xOffset="454" identifier="19FD2970"/>
    <component base="_stem.foot" xOffset="848" identifier="D783F49B"/>
  </outline>
</glyph>
